<svg xmlns="http://www.w3.org/2000/svg" width="1170" height="1226.15" viewBox="0 0 1170 1226.15"><title>Smart City_1</title><g id="Layer_1" data-name="Layer 1"><path d="M1023.18,1006.25,237.7,1031.8a15.09,15.09,0,0,0-15,15L100.31,1193.1a15.09,15.09,0,0,0,15,15.05H1137.62c8.28,0,37.68-9.94,27.37-29.41L1045.87,1021.3C1038.35,1010.18,1031.45,1006.25,1023.18,1006.25Z" style="fill:#dcdcdc"/><rect x="-7.52" y="-10.79" width="1196.73" height="1019.94" style="fill:#cbcbcb"/><path d="M1131.24,1168,1008,995.4c-7.38-13.49-30.93-13.49-39.66-13.49h-749c-8.73,0-23.95,0-31.33,13.49L71.16,1168c0,.23,0,.46,0,.7H1131.22C1131.23,1168.41,1131.24,1168.18,1131.24,1168Z" style="fill:#6f6f6f"/><path d="M71.17,1168.65c.46,11.3,17,29.56,32.44,29.56h995.62c13.79,0,31.55-18.26,32-29.56Z" style="fill:#464646"/><polygon points="1056.85 1140.56 130.76 1140.56 213.48 998.56 970.5 997.29 1056.85 1140.56" style="opacity:0.49"/><path d="M1027.69,1065.1c-7.37-.84-13.06-4.41-12.69-8s6.66-5.77,14-4.93,13.06,4.4,12.69,8S1035.05,1065.93,1027.69,1065.1Zm1.16-11.27c-5.5-.62-10.2,1-10.48,3.69s4,5.33,9.49,6,10.2-1,10.48-3.69S1034.36,1054.46,1028.85,1053.83Z" style="fill:#fff;opacity:0.25"/><polygon points="311.02 1013.14 284.74 1030.55 338.72 1037.18 311.02 1013.14"/><polygon points="400.45 1049.22 374.17 1066.63 428.16 1073.26 400.45 1049.22"/><polygon points="519.46 1087.26 489.56 1106.51 564.96 1107.2 519.46 1087.26"/><polygon points="737.25 1056.98 734.82 1089.8 784.67 1075.01 737.25 1056.98"/><polygon points="875.1 1019.19 872.66 1052.01 924.22 1020.95 875.1 1019.19"/><polygon points="924.38 997.29 937.68 1016.27 965.58 997.51 924.38 997.29"/></g><g id="Layer_2" data-name="Layer 2"><polygon points="995.07 1037.81 899.21 1058.31 899.21 1066.21 997.62 1041.88 995.07 1037.81"/><polygon points="981.47 1015.5 966.94 1019.21 966.94 1024.09 983.97 1019.19 981.47 1015.5"/><g style="opacity:0.86"><polygon points="766.57 883.73 706.96 897.16 706.96 536.06 766.57 522.63 766.57 883.73" style="fill:#8e8e8e"/><polygon points="659.06 881.06 706.96 897.16 706.96 536.06 659.06 519.97 659.06 881.06" style="fill:#b7b7b7"/><polyline points="706.96 536.06 659.06 519.97 719.28 506.72 766.57 522.63" style="fill:#fff"/></g><polygon points="824.54 962.01 718.55 916.22 718.55 458.26 824.54 455.89 824.54 962.01" style="fill:#ec9839"/><polygon points="877.56 936.78 823.8 962.52 823.9 455.89 877.13 431.75 877.56 936.78" style="fill:#ea8c23"/><polygon points="718.55 457.38 824.76 406.69 877.86 432.03 824.76 457.38 877.86 482.71 824.76 508.6 718.55 457.38" style="fill:#f8dbbb"/><path d="M949.16,1004c0,11.69-27.86,21.16-62.23,21.16s-62.24-9.47-62.24-21.16V565.86c0-11.69,27.87-21.17,62.24-21.17s62.23,9.48,62.23,21.17Z" style="fill:#898989"/><ellipse cx="886.93" cy="565.86" rx="62.23" ry="21.17" style="fill:#eee"/><polygon points="422.8 957.15 332.61 979.37 332.61 381.93 422.8 359.72 422.8 957.15" style="fill:#cf4d27"/><polygon points="260.79 952.74 333.25 979.37 333.25 381.93 260.79 355.31 260.79 952.74" style="fill:#d66645"/><polyline points="333.25 381.93 260.79 355.31 351.9 333.38 423.43 359.72" style="fill:#f1cbc0"/><polygon points="346.39 409.84 346.39 448.37 358.1 445.45 358.1 406.94 346.39 409.84" style="fill:#e39882"/><polygon points="364.63 405.32 364.63 443.83 376.33 440.91 376.33 402.43 364.63 405.32" style="fill:#e39882"/><polygon points="383.35 400.69 383.35 439.17 395.06 436.25 395.06 397.79 383.35 400.69" style="fill:#e39882"/><polygon points="413.29 393.27 401.59 396.17 401.59 434.62 413.29 431.71 413.29 393.27" style="fill:#e39882"/><polygon points="346.39 479.04 346.39 517.57 358.1 514.65 358.1 476.14 346.39 479.04" style="fill:#fff"/><polygon points="364.63 474.53 364.63 513.03 376.33 510.11 376.33 471.63 364.63 474.53" style="fill:#fff"/><polygon points="383.35 469.89 383.35 508.37 395.06 505.45 395.06 466.99 383.35 469.89" style="fill:#fff"/><polygon points="413.29 462.47 401.59 465.37 401.59 503.82 413.29 500.91 413.29 462.47" style="fill:#fff"/><polygon points="346.39 548.24 346.39 586.77 358.1 583.86 358.1 545.35 346.39 548.24" style="fill:#fff"/><polygon points="364.63 543.73 364.63 582.23 376.33 579.31 376.33 540.83 364.63 543.73" style="fill:#fff"/><polygon points="383.35 539.09 383.35 577.57 395.06 574.65 395.06 536.19 383.35 539.09" style="fill:#fff"/><polygon points="413.29 531.67 401.59 534.57 401.59 573.02 413.29 570.11 413.29 531.67" style="fill:#fff"/><polygon points="346.39 623.82 346.39 662.35 358.1 659.43 358.1 620.92 346.39 623.82" style="fill:#fff"/><polygon points="364.63 619.3 364.63 657.81 376.33 654.89 376.33 616.4 364.63 619.3" style="fill:#fff"/><polygon points="383.35 614.67 383.35 653.14 395.06 650.23 395.06 611.77 383.35 614.67" style="fill:#fff"/><polygon points="413.29 607.25 401.59 610.15 401.59 648.6 413.29 645.69 413.29 607.25" style="fill:#fff"/><polygon points="346.39 699.4 346.39 737.93 358.1 735.01 358.1 696.5 346.39 699.4" style="fill:#fff"/><polygon points="364.63 694.88 364.63 733.38 376.33 730.47 376.33 691.98 364.63 694.88" style="fill:#fff"/><polygon points="383.35 690.25 383.35 728.72 395.06 725.81 395.06 687.35 383.35 690.25" style="fill:#fff"/><polygon points="413.29 682.83 401.59 685.73 401.59 724.18 413.29 721.27 413.29 682.83" style="fill:#fff"/><polygon points="346.39 774.98 346.39 813.5 358.1 810.59 358.1 772.08 346.39 774.98" style="fill:#fff"/><polygon points="364.63 770.46 364.63 808.96 376.33 806.05 376.33 767.56 364.63 770.46" style="fill:#fff"/><polygon points="383.35 765.82 383.35 804.3 395.06 801.38 395.06 762.92 383.35 765.82" style="fill:#fff"/><polygon points="413.29 758.41 401.59 761.3 401.59 799.76 413.29 796.84 413.29 758.41" style="fill:#fff"/><polygon points="346.39 850.55 346.39 889.08 358.1 886.17 358.1 847.66 346.39 850.55" style="fill:#fff"/><polygon points="364.63 846.04 364.63 884.54 376.33 881.63 376.33 843.14 364.63 846.04" style="fill:#fff"/><polygon points="383.35 841.4 383.35 879.88 395.06 876.96 395.06 838.5 383.35 841.4" style="fill:#fff"/><polygon points="413.29 833.98 401.59 836.88 401.59 875.34 413.29 872.42 413.29 833.98" style="fill:#fff"/><polygon points="364.33 1010.78 284.74 1029.91 284.74 778.83 364.33 759.7 364.33 1010.78" style="fill:#747474"/><polygon points="232.78 1010.78 284.74 1029.91 284.74 778.83 232.78 759.7 232.78 1010.78" style="fill:#9d9d9d"/><polygon points="284.74 778.83 232.78 759.7 306.32 743.15 364.33 759.7 284.74 778.83" style="fill:#c6c6c6"/><polygon points="538.28 687.86 458.68 706.99 458.68 455.91 538.28 436.78 538.28 687.86" style="fill:#7c7c7c"/><polygon points="406.73 687.86 458.68 706.99 458.68 455.91 406.73 436.78 406.73 687.86" style="fill:#aeaeae"/><polygon points="458.68 455.91 406.73 436.78 480.27 420.23 538.28 436.78 458.68 455.91" style="fill:#cbcbcb"/><polygon points="545.68 861.34 466.09 880.47 466.09 629.39 545.68 610.26 545.68 861.34" style="fill:#878787"/><polygon points="414.13 861.34 466.09 880.47 466.09 629.39 414.13 610.26 414.13 861.34" style="fill:#b7b7b7"/><polygon points="466.09 629.39 414.13 610.26 487.67 593.71 545.68 610.26 466.09 629.39" style="fill:#dedede"/><polygon points="466.09 655.16 414.13 636.03 487.67 619.48 545.68 636.03 466.09 655.16" style="fill:#dedede;opacity:0.43"/><polygon points="466.09 682.24 414.13 663.11 487.67 646.56 545.68 663.11 466.09 682.24" style="fill:#dedede;opacity:0.43"/><polygon points="466.09 709.32 414.13 690.18 487.67 673.63 545.68 690.18 466.09 709.32" style="fill:#dedede;opacity:0.43"/><polygon points="466.09 736.39 414.13 717.26 487.67 700.71 545.68 717.26 466.09 736.39" style="fill:#dedede;opacity:0.43"/><polygon points="466.09 763.47 414.13 744.34 487.67 727.78 545.68 744.34 466.09 763.47" style="fill:#dedede;opacity:0.43"/><polygon points="466.09 790.54 414.13 771.41 487.67 754.86 545.68 771.41 466.09 790.54" style="fill:#dedede;opacity:0.43"/><polygon points="466.09 817.62 414.13 798.49 487.67 781.94 545.68 798.49 466.09 817.62" style="fill:#dedede;opacity:0.43"/><polygon points="466.09 844.7 414.13 825.56 487.67 809.01 545.68 825.56 466.09 844.7" style="fill:#dedede;opacity:0.43"/><polygon points="875.12 1051.36 782.98 1075.7 782.98 684.64 875.12 660.31 875.12 1051.36" style="fill:#cf4d27"/><polygon points="722.83 1051.36 782.98 1075.7 782.98 684.64 722.83 660.31 722.83 1051.36" style="fill:#d97052"/><polygon points="813.76 713.19 795.75 717.95 795.75 699.93 813.76 695.17 813.76 713.19" style="fill:#df8970"/><polygon points="838.61 706.63 820.59 711.39 820.59 693.37 838.61 688.61 838.61 706.63" style="fill:#df8970"/><polygon points="838.61 730.65 820.59 735.41 820.59 717.39 838.61 712.63 838.61 730.65" style="fill:#df8970"/><polygon points="863.44 724.09 845.42 728.85 845.42 710.83 863.44 706.08 863.44 724.09" style="fill:#df8970"/><polygon points="813.76 761.23 795.75 765.99 795.75 747.98 813.76 743.22 813.76 761.23" style="fill:#df8970"/><polygon points="863.44 748.11 845.42 752.87 845.42 734.86 863.44 730.1 863.44 748.11" style="fill:#efc4b8"/><polygon points="838.61 778.7 820.59 783.45 820.59 765.44 838.61 760.68 838.61 778.7" style="fill:#df8970"/><polygon points="863.44 772.14 845.42 776.89 845.42 758.88 863.44 754.12 863.44 772.14" style="fill:#df8970"/><polygon points="813.76 809.28 795.75 814.04 795.75 796.02 813.76 791.26 813.76 809.28" style="fill:#df8970"/><polygon points="813.76 833.3 795.75 838.06 795.75 820.04 813.76 815.28 813.76 833.3" style="fill:#efc4b8"/><polygon points="838.61 826.74 820.59 831.5 820.59 813.48 838.61 808.72 838.61 826.74" style="fill:#df8970"/><polygon points="863.44 820.18 845.42 824.94 845.42 806.92 863.44 802.16 863.44 820.18" style="fill:#df8970"/><polygon points="813.76 857.32 795.75 862.08 795.75 844.07 813.76 839.31 813.76 857.32" style="fill:#df8970"/><polygon points="813.76 881.35 795.75 886.1 795.75 868.09 813.76 863.33 813.76 881.35" style="fill:#df8970"/><polygon points="838.61 874.78 820.59 879.54 820.59 861.53 838.61 856.77 838.61 874.78" style="fill:#efc4b8"/><polygon points="863.44 868.23 845.42 872.98 845.42 854.97 863.44 850.21 863.44 868.23" style="fill:#df8970"/><polygon points="813.76 929.39 795.75 934.15 795.75 916.13 813.76 911.37 813.76 929.39" style="fill:#df8970"/><polygon points="863.44 916.27 845.42 921.03 845.42 903.01 863.44 898.25 863.44 916.27" style="fill:#df8970"/><polygon points="863.44 964.53 845.42 969.28 845.42 951.27 863.44 946.51 863.44 964.53" style="fill:#df8970"/><polygon points="813.76 977.51 795.75 982.26 795.75 964.25 813.76 959.49 813.76 977.51" style="fill:#efc4b8"/><polygon points="813.76 1001.53 795.75 1006.29 795.75 988.27 813.76 983.51 813.76 1001.53" style="fill:#df8970"/><polygon points="838.61 994.97 820.59 999.73 820.59 981.71 838.61 976.95 838.61 994.97" style="fill:#df8970"/><polygon points="813.76 1025.55 795.75 1030.31 795.75 1012.29 813.76 1007.54 813.76 1025.55" style="fill:#df8970"/><polygon points="838.61 1018.99 820.59 1023.75 820.59 1005.73 838.61 1000.97 838.61 1018.99" style="fill:#efc4b8"/><polygon points="863.44 1012.43 845.42 1017.19 845.42 999.17 863.44 994.42 863.44 1012.43" style="fill:#df8970"/><polygon points="838.61 1043.01 820.59 1047.77 820.59 1029.75 838.61 1025 838.61 1043.01" style="fill:#df8970"/><polygon points="863.44 1036.45 845.42 1041.21 845.42 1023.2 863.44 1018.44 863.44 1036.45" style="fill:#df8970"/><polyline points="782.98 684.64 722.83 660.31 808.57 638.05 875.12 660.31" style="fill:#df8970"/><polygon points="602.72 1077.39 519 1041.85 519 244.42 602.72 279.96 602.72 1077.39" style="fill:#ea766e"/><path d="M534.11,528.88A7.07,7.07,0,0,1,530,523V493.09c0-2.29,1.85-3.36,4.14-2.38a7.08,7.08,0,0,1,4.15,5.9V526.5C538.26,528.79,536.4,529.86,534.11,528.88Z" style="fill:#f5c2be"/><path d="M551.61,536.31a7.07,7.07,0,0,1-4.14-5.9V500.52c0-2.29,1.85-3.36,4.14-2.38a7.08,7.08,0,0,1,4.15,5.9v29.89C555.76,536.22,553.9,537.29,551.61,536.31Z" style="fill:#f5c2be"/><path d="M569.11,543.74a7.08,7.08,0,0,1-4.15-5.9V508c0-2.29,1.86-3.36,4.15-2.39a7.11,7.11,0,0,1,4.15,5.91v29.89C573.26,543.65,571.4,544.72,569.11,543.74Z" style="fill:#fff"/><path d="M586.61,551.17a7.08,7.08,0,0,1-4.15-5.9V515.38c0-2.29,1.86-3.36,4.15-2.39a7.11,7.11,0,0,1,4.15,5.91v29.89C590.76,551.08,588.9,552.14,586.61,551.17Z" style="fill:#f5c2be"/><path d="M534.11,474.53a7.08,7.08,0,0,1-4.14-5.91V438.74c0-2.29,1.85-3.36,4.14-2.39a7.09,7.09,0,0,1,4.15,5.91v29.88C538.26,474.43,536.4,475.5,534.11,474.53Z" style="fill:#f5c2be"/><path d="M551.61,482a7.08,7.08,0,0,1-4.14-5.91V446.16c0-2.28,1.85-3.35,4.14-2.38a7.09,7.09,0,0,1,4.15,5.91v29.88C555.76,481.86,553.9,482.93,551.61,482Z" style="fill:#f5c2be"/><path d="M569.11,489.39a7.11,7.11,0,0,1-4.15-5.91V453.59c0-2.29,1.86-3.35,4.15-2.38a7.08,7.08,0,0,1,4.15,5.9V487C573.26,489.29,571.4,490.36,569.11,489.39Z" style="fill:#f5c2be"/><path d="M586.61,496.82a7.11,7.11,0,0,1-4.15-5.91V461c0-2.29,1.86-3.35,4.15-2.38a7.08,7.08,0,0,1,4.15,5.9v29.89C590.76,496.72,588.9,497.79,586.61,496.82Z" style="fill:#f5c2be"/><path d="M534.11,420.17a7.08,7.08,0,0,1-4.14-5.9V384.38c0-2.29,1.85-3.36,4.14-2.39a7.11,7.11,0,0,1,4.15,5.91v29.89C538.26,420.08,536.4,421.14,534.11,420.17Z" style="fill:#fff"/><path d="M551.61,427.6a7.08,7.08,0,0,1-4.14-5.91V391.81c0-2.29,1.85-3.36,4.14-2.39a7.09,7.09,0,0,1,4.15,5.91v29.88C555.76,427.5,553.9,428.57,551.61,427.6Z" style="fill:#f5c2be"/><path d="M569.11,435a7.09,7.09,0,0,1-4.15-5.91V399.24c0-2.29,1.86-3.36,4.15-2.39a7.09,7.09,0,0,1,4.15,5.91v29.88C573.26,434.93,571.4,436,569.11,435Z" style="fill:#f5c2be"/><path d="M586.61,442.46a7.09,7.09,0,0,1-4.15-5.91V406.67c0-2.29,1.86-3.36,4.15-2.39a7.09,7.09,0,0,1,4.15,5.91v29.88C590.76,442.36,588.9,443.43,586.61,442.46Z" style="fill:#f5c2be"/><path d="M534.11,365.82a7.1,7.1,0,0,1-4.14-5.91V330c0-2.29,1.85-3.36,4.14-2.38a7.08,7.08,0,0,1,4.15,5.9v29.89C538.26,365.72,536.4,366.79,534.11,365.82Z" style="fill:#f5c2be"/><path d="M551.61,373.24a7.07,7.07,0,0,1-4.14-5.9V337.45c0-2.29,1.85-3.36,4.14-2.38a7.08,7.08,0,0,1,4.15,5.9v29.89C555.76,373.15,553.9,374.22,551.61,373.24Z" style="fill:#f5c2be"/><path d="M569.11,380.67a7.08,7.08,0,0,1-4.15-5.9V344.88c0-2.29,1.86-3.36,4.15-2.39a7.11,7.11,0,0,1,4.15,5.91v29.89C573.26,380.58,571.4,381.65,569.11,380.67Z" style="fill:#fff"/><path d="M586.61,388.1a7.08,7.08,0,0,1-4.15-5.9V352.31c0-2.29,1.86-3.36,4.15-2.39a7.11,7.11,0,0,1,4.15,5.91v29.89C590.76,388,588.9,389.07,586.61,388.1Z" style="fill:#f5c2be"/><path d="M534.11,310.82a7.08,7.08,0,0,1-4.14-5.91V275c0-2.29,1.85-3.36,4.14-2.39a7.09,7.09,0,0,1,4.15,5.91v29.88C538.26,310.72,536.4,311.79,534.11,310.82Z" style="fill:#f5c2be"/><path d="M551.61,318.25a7.08,7.08,0,0,1-4.14-5.91V282.46c0-2.29,1.85-3.36,4.14-2.39a7.09,7.09,0,0,1,4.15,5.91v29.88C555.76,318.15,553.9,319.22,551.61,318.25Z" style="fill:#f5c2be"/><path d="M569.11,325.68a7.09,7.09,0,0,1-4.15-5.91V289.89c0-2.29,1.86-3.36,4.15-2.39a7.09,7.09,0,0,1,4.15,5.91v29.88C573.26,325.58,571.4,326.65,569.11,325.68Z" style="fill:#f5c2be"/><path d="M586.61,333.11a7.09,7.09,0,0,1-4.15-5.91V297.32c0-2.29,1.86-3.36,4.15-2.39a7.09,7.09,0,0,1,4.15,5.91v29.88C590.76,333,588.9,334.08,586.61,333.11Z" style="fill:#f5c2be"/><path d="M534.11,584.43a7.1,7.1,0,0,1-4.14-5.91V548.63c0-2.29,1.85-3.36,4.14-2.38a7.08,7.08,0,0,1,4.15,5.9V582C538.26,584.33,536.4,585.4,534.11,584.43Z" style="fill:#f5c2be"/><path d="M551.61,591.85a7.07,7.07,0,0,1-4.14-5.9V556.06c0-2.29,1.85-3.36,4.14-2.38a7.08,7.08,0,0,1,4.15,5.9v29.89C555.76,591.76,553.9,592.83,551.61,591.85Z" style="fill:#f5c2be"/><path d="M569.11,599.28a7.08,7.08,0,0,1-4.15-5.9V563.49c0-2.29,1.86-3.36,4.15-2.38a7.08,7.08,0,0,1,4.15,5.9V596.9C573.26,599.19,571.4,600.26,569.11,599.28Z" style="fill:#f5c2be"/><path d="M586.61,606.71a7.08,7.08,0,0,1-4.15-5.9V570.92c0-2.29,1.86-3.36,4.15-2.39a7.11,7.11,0,0,1,4.15,5.91v29.89C590.76,606.62,588.9,607.69,586.61,606.71Z" style="fill:#fff"/><path d="M534.11,640a7.1,7.1,0,0,1-4.14-5.91V604.17c0-2.29,1.85-3.35,4.14-2.38a7.08,7.08,0,0,1,4.15,5.9v29.89C538.26,639.87,536.4,640.94,534.11,640Z" style="fill:#fff"/><path d="M551.61,647.4a7.1,7.1,0,0,1-4.14-5.91V611.6c0-2.29,1.85-3.36,4.14-2.38a7.08,7.08,0,0,1,4.15,5.9V645C555.76,647.3,553.9,648.37,551.61,647.4Z" style="fill:#f5c2be"/><path d="M569.11,654.82a7.08,7.08,0,0,1-4.15-5.9V619c0-2.29,1.86-3.36,4.15-2.38a7.08,7.08,0,0,1,4.15,5.9v29.89C573.26,654.73,571.4,655.8,569.11,654.82Z" style="fill:#fff"/><path d="M586.61,662.25a7.08,7.08,0,0,1-4.15-5.9V626.46c0-2.29,1.86-3.36,4.15-2.38a7.08,7.08,0,0,1,4.15,5.9v29.89C590.76,662.16,588.9,663.23,586.61,662.25Z" style="fill:#f5c2be"/><path d="M534.11,695.51A7.1,7.1,0,0,1,530,689.6V659.71c0-2.29,1.85-3.35,4.14-2.38a7.09,7.09,0,0,1,4.15,5.9v29.89C538.26,695.41,536.4,696.48,534.11,695.51Z" style="fill:#fff"/><path d="M551.61,702.94a7.1,7.1,0,0,1-4.14-5.91V667.14c0-2.29,1.85-3.35,4.14-2.38a7.08,7.08,0,0,1,4.15,5.9v29.89C555.76,702.84,553.9,703.91,551.61,702.94Z" style="fill:#f5c2be"/><path d="M569.11,710.37a7.11,7.11,0,0,1-4.15-5.91V674.57c0-2.29,1.86-3.36,4.15-2.38a7.08,7.08,0,0,1,4.15,5.9V708C573.26,710.27,571.4,711.34,569.11,710.37Z" style="fill:#f5c2be"/><path d="M586.61,717.79a7.08,7.08,0,0,1-4.15-5.9V682c0-2.29,1.86-3.36,4.15-2.38a7.08,7.08,0,0,1,4.15,5.9v29.89C590.76,717.7,588.9,718.77,586.61,717.79Z" style="fill:#f5c2be"/><path d="M534.11,751.05a7.08,7.08,0,0,1-4.14-5.91V715.25c0-2.28,1.85-3.35,4.14-2.38a7.09,7.09,0,0,1,4.15,5.91v29.88C538.26,751,536.4,752,534.11,751.05Z" style="fill:#f5c2be"/><path d="M551.61,758.48a7.1,7.1,0,0,1-4.14-5.91V722.68c0-2.29,1.85-3.35,4.14-2.38a7.08,7.08,0,0,1,4.15,5.9v29.89C555.76,758.38,553.9,759.45,551.61,758.48Z" style="fill:#f5c2be"/><path d="M569.11,765.91A7.11,7.11,0,0,1,565,760V730.11c0-2.29,1.86-3.35,4.15-2.38a7.08,7.08,0,0,1,4.15,5.9v29.89C573.26,765.81,571.4,766.88,569.11,765.91Z" style="fill:#f5c2be"/><path d="M586.61,773.33a7.08,7.08,0,0,1-4.15-5.9V737.54c0-2.29,1.86-3.36,4.15-2.38a7.08,7.08,0,0,1,4.15,5.9V771C590.76,773.24,588.9,774.31,586.61,773.33Z" style="fill:#f5c2be"/><path d="M534.11,806.59a7.08,7.08,0,0,1-4.14-5.91V770.8c0-2.29,1.85-3.36,4.14-2.39a7.09,7.09,0,0,1,4.15,5.91V804.2C538.26,806.49,536.4,807.56,534.11,806.59Z" style="fill:#f5c2be"/><path d="M551.61,814a7.08,7.08,0,0,1-4.14-5.91V778.22c0-2.29,1.85-3.35,4.14-2.38a7.09,7.09,0,0,1,4.15,5.91v29.88C555.76,813.92,553.9,815,551.61,814Z" style="fill:#f5c2be"/><path d="M569.11,821.45a7.11,7.11,0,0,1-4.15-5.91V785.65c0-2.29,1.86-3.35,4.15-2.38a7.08,7.08,0,0,1,4.15,5.9v29.89C573.26,821.35,571.4,822.42,569.11,821.45Z" style="fill:#f5c2be"/><path d="M586.61,828.88a7.11,7.11,0,0,1-4.15-5.91V793.08c0-2.29,1.86-3.36,4.15-2.38a7.08,7.08,0,0,1,4.15,5.9v29.89C590.76,828.78,588.9,829.85,586.61,828.88Z" style="fill:#f5c2be"/><path d="M534.11,862.13a7.08,7.08,0,0,1-4.14-5.91V826.34c0-2.29,1.85-3.36,4.14-2.39a7.09,7.09,0,0,1,4.15,5.91v29.88C538.26,862,536.4,863.1,534.11,862.13Z" style="fill:#f5c2be"/><path d="M551.61,869.56a7.08,7.08,0,0,1-4.14-5.91V833.77c0-2.29,1.85-3.36,4.14-2.39a7.09,7.09,0,0,1,4.15,5.91v29.88C555.76,869.46,553.9,870.53,551.61,869.56Z" style="fill:#f5c2be"/><path d="M569.11,877a7.11,7.11,0,0,1-4.15-5.91V841.19c0-2.29,1.86-3.35,4.15-2.38a7.09,7.09,0,0,1,4.15,5.91V874.6C573.26,876.89,571.4,878,569.11,877Z" style="fill:#f5c2be"/><path d="M586.61,884.42a7.11,7.11,0,0,1-4.15-5.91V848.62c0-2.29,1.86-3.35,4.15-2.38a7.08,7.08,0,0,1,4.15,5.9V882C590.76,884.32,588.9,885.39,586.61,884.42Z" style="fill:#fff"/><path d="M534.11,917.67a7.08,7.08,0,0,1-4.14-5.91V881.88c0-2.29,1.85-3.36,4.14-2.39a7.09,7.09,0,0,1,4.15,5.91v29.88C538.26,917.57,536.4,918.64,534.11,917.67Z" style="fill:#fff"/><path d="M569.11,932.53a7.09,7.09,0,0,1-4.15-5.91V896.74c0-2.29,1.86-3.36,4.15-2.39a7.09,7.09,0,0,1,4.15,5.91v29.88C573.26,932.43,571.4,933.5,569.11,932.53Z" style="fill:#fff"/><path d="M586.61,940a7.11,7.11,0,0,1-4.15-5.91V904.16c0-2.29,1.86-3.35,4.15-2.38a7.09,7.09,0,0,1,4.15,5.9v29.89C590.76,939.86,588.9,940.93,586.61,940Z" style="fill:#fff"/><path d="M534.11,973.21A7.08,7.08,0,0,1,530,967.3V937.42c0-2.29,1.85-3.36,4.14-2.39a7.09,7.09,0,0,1,4.15,5.91v29.88C538.26,973.11,536.4,974.18,534.11,973.21Z" style="fill:#fff"/><path d="M569.11,988.07a7.09,7.09,0,0,1-4.15-5.91V952.28c0-2.29,1.86-3.36,4.15-2.39a7.09,7.09,0,0,1,4.15,5.91v29.88C573.26,988,571.4,989,569.11,988.07Z" style="fill:#fff"/><path d="M586.61,995.5a7.09,7.09,0,0,1-4.15-5.91V959.7c0-2.28,1.86-3.35,4.15-2.38a7.09,7.09,0,0,1,4.15,5.91v29.88C590.76,995.4,588.9,996.47,586.61,995.5Z" style="fill:#fff"/><path d="M534.11,1028.75a7.08,7.08,0,0,1-4.14-5.91V993c0-2.29,1.85-3.36,4.14-2.39a7.09,7.09,0,0,1,4.15,5.91v29.88C538.26,1028.65,536.4,1029.72,534.11,1028.75Z" style="fill:#fff"/><path d="M551.61,1036.18a7.08,7.08,0,0,1-4.14-5.91v-29.88c0-2.29,1.85-3.36,4.14-2.39a7.09,7.09,0,0,1,4.15,5.91v29.88C555.76,1036.08,553.9,1037.15,551.61,1036.18Z" style="fill:#fff"/><path d="M569.11,1043.61a7.09,7.09,0,0,1-4.15-5.91v-29.88c0-2.29,1.86-3.36,4.15-2.39a7.09,7.09,0,0,1,4.15,5.91v29.88C573.26,1043.51,571.4,1044.58,569.11,1043.61Z" style="fill:#fff"/><path d="M586.61,1051a7.09,7.09,0,0,1-4.15-5.91v-29.88c0-2.29,1.86-3.36,4.15-2.39a7.09,7.09,0,0,1,4.15,5.91v29.88C590.76,1050.94,588.9,1052,586.61,1051Z" style="fill:#fff"/><polygon points="601.56 1077.39 685.28 1041.85 685.28 244.42 601.56 279.96 601.56 1077.39" style="fill:#df3326"/><line x1="670.17" y1="494.85" x2="670.17" y2="524.74" style="fill:#fff"/><path d="M670.17,528.88a7.08,7.08,0,0,0,4.15-5.9V493.09c0-2.29-1.86-3.36-4.15-2.38a7.08,7.08,0,0,0-4.15,5.9V526.5C666,528.79,667.88,529.86,670.17,528.88Z" style="fill:#e97067"/><line x1="652.67" y1="502.28" x2="652.67" y2="532.17" style="fill:#fff"/><path d="M652.67,536.31a7.08,7.08,0,0,0,4.15-5.9V500.52c0-2.29-1.86-3.36-4.15-2.38a7.08,7.08,0,0,0-4.15,5.9v29.89C648.52,536.22,650.38,537.29,652.67,536.31Z" style="fill:#ee938c"/><line x1="635.17" y1="509.71" x2="635.17" y2="539.6" style="fill:#fff"/><path d="M635.17,543.74a7.08,7.08,0,0,0,4.15-5.9V508c0-2.29-1.86-3.36-4.15-2.39a7.1,7.1,0,0,0-4.14,5.91v29.89C631,543.65,632.88,544.72,635.17,543.74Z" style="fill:#ee938c"/><line x1="617.67" y1="517.14" x2="617.67" y2="547.03" style="fill:#fff"/><path d="M617.67,551.17a7.08,7.08,0,0,0,4.15-5.9V515.38c0-2.29-1.86-3.36-4.15-2.39a7.1,7.1,0,0,0-4.14,5.91v29.89C613.53,551.08,615.38,552.14,617.67,551.17Z" style="fill:#ee938c"/><line x1="670.17" y1="550.39" x2="670.17" y2="580.28" style="fill:#fff"/><path d="M670.17,584.43a7.11,7.11,0,0,0,4.15-5.91V548.63c0-2.29-1.86-3.36-4.15-2.38a7.08,7.08,0,0,0-4.15,5.9V582C666,584.33,667.88,585.4,670.17,584.43Z" style="fill:#ee938c"/><line x1="652.67" y1="557.82" x2="652.67" y2="587.71" style="fill:#fff"/><path d="M652.67,591.85a7.08,7.08,0,0,0,4.15-5.9V556.06c0-2.29-1.86-3.36-4.15-2.38a7.08,7.08,0,0,0-4.15,5.9v29.89C648.52,591.76,650.38,592.83,652.67,591.85Z" style="fill:#e97067"/><line x1="635.17" y1="565.25" x2="635.17" y2="595.14" style="fill:#fff"/><path d="M635.17,599.28a7.08,7.08,0,0,0,4.15-5.9V563.49c0-2.29-1.86-3.36-4.15-2.38A7.07,7.07,0,0,0,631,567V596.9C631,599.19,632.88,600.26,635.17,599.28Z" style="fill:#e97067"/><line x1="617.67" y1="572.68" x2="617.67" y2="602.57" style="fill:#fff"/><path d="M617.67,606.71a7.08,7.08,0,0,0,4.15-5.9V570.92c0-2.29-1.86-3.36-4.15-2.39a7.1,7.1,0,0,0-4.14,5.91v29.89C613.53,606.62,615.38,607.69,617.67,606.71Z" style="fill:#ee938c"/><line x1="670.17" y1="605.93" x2="670.17" y2="635.82" style="fill:#fff"/><path d="M670.17,640a7.11,7.11,0,0,0,4.15-5.91V604.17c0-2.29-1.86-3.35-4.15-2.38a7.08,7.08,0,0,0-4.15,5.9v29.89C666,639.87,667.88,640.94,670.17,640Z" style="fill:#e97067"/><line x1="670.17" y1="385.82" x2="670.17" y2="415.71" style="fill:#fff"/><path d="M670.17,419.85a7.08,7.08,0,0,0,4.15-5.9V384.06c0-2.29-1.86-3.36-4.15-2.38a7.08,7.08,0,0,0-4.15,5.9v29.89C666,419.76,667.88,420.83,670.17,419.85Z" style="fill:#ee938c"/><line x1="652.67" y1="393.25" x2="652.67" y2="423.14" style="fill:#fff"/><path d="M652.67,427.28a7.08,7.08,0,0,0,4.15-5.9V391.49c0-2.29-1.86-3.36-4.15-2.38a7.08,7.08,0,0,0-4.15,5.9V424.9C648.52,427.19,650.38,428.26,652.67,427.28Z" style="fill:#e97067"/><line x1="635.17" y1="400.68" x2="635.17" y2="430.57" style="fill:#fff"/><path d="M635.17,434.71a7.08,7.08,0,0,0,4.15-5.9V398.92c0-2.29-1.86-3.36-4.15-2.39a7.1,7.1,0,0,0-4.14,5.91v29.89C631,434.62,632.88,435.68,635.17,434.71Z" style="fill:#ee938c"/><line x1="617.67" y1="408.11" x2="617.67" y2="438" style="fill:#fff"/><path d="M617.67,442.14a7.08,7.08,0,0,0,4.15-5.9V406.35c0-2.29-1.86-3.36-4.15-2.39a7.1,7.1,0,0,0-4.14,5.91v29.89C613.53,442.05,615.38,443.11,617.67,442.14Z" style="fill:#ee938c"/><path d="M670.17,365.46a7.09,7.09,0,0,0,4.15-5.91V329.67c0-2.29-1.86-3.36-4.15-2.39a7.09,7.09,0,0,0-4.15,5.91v29.89C666,365.36,667.88,366.43,670.17,365.46Z" style="fill:#ee938c"/><path d="M652.67,372.89a7.09,7.09,0,0,0,4.15-5.91V337.1c0-2.29-1.86-3.36-4.15-2.39a7.09,7.09,0,0,0-4.15,5.91V370.5C648.52,372.79,650.38,373.86,652.67,372.89Z" style="fill:#ee938c"/><path d="M635.17,380.32a7.09,7.09,0,0,0,4.15-5.91V344.53c0-2.29-1.86-3.36-4.15-2.39a7.08,7.08,0,0,0-4.14,5.91v29.88C631,380.22,632.88,381.29,635.17,380.32Z" style="fill:#e97067"/><path d="M617.67,387.75a7.09,7.09,0,0,0,4.15-5.91V352c0-2.29-1.86-3.36-4.15-2.39a7.08,7.08,0,0,0-4.14,5.91v29.88C613.53,387.65,615.38,388.72,617.67,387.75Z" style="fill:#ee938c"/><path d="M670.17,311.07a7.09,7.09,0,0,0,4.15-5.91V275.28c0-2.29-1.86-3.36-4.15-2.39A7.09,7.09,0,0,0,666,278.8v29.88C666,311,667.88,312,670.17,311.07Z" style="fill:#ee938c"/><path d="M652.67,318.5a7.11,7.11,0,0,0,4.15-5.91V282.7c0-2.29-1.86-3.35-4.15-2.38a7.09,7.09,0,0,0-4.15,5.9v29.89C648.52,318.4,650.38,319.47,652.67,318.5Z" style="fill:#ee938c"/><path d="M635.17,325.93a7.11,7.11,0,0,0,4.15-5.91V290.13c0-2.29-1.86-3.35-4.15-2.38a7.07,7.07,0,0,0-4.14,5.9v29.89C631,325.83,632.88,326.9,635.17,325.93Z" style="fill:#ee938c"/><path d="M617.67,333.36a7.11,7.11,0,0,0,4.15-5.91V297.56c0-2.29-1.86-3.36-4.15-2.38a7.07,7.07,0,0,0-4.14,5.9V331C613.53,333.26,615.38,334.33,617.67,333.36Z" style="fill:#e97067"/><line x1="670.17" y1="441.36" x2="670.17" y2="471.25" style="fill:#fff"/><path d="M670.17,475.4a7.11,7.11,0,0,0,4.15-5.91V439.6c0-2.29-1.86-3.36-4.15-2.38a7.08,7.08,0,0,0-4.15,5.9V473C666,475.3,667.88,476.37,670.17,475.4Z" style="fill:#ee938c"/><line x1="652.67" y1="448.79" x2="652.67" y2="478.68" style="fill:#fff"/><path d="M652.67,482.82a7.08,7.08,0,0,0,4.15-5.9V447c0-2.29-1.86-3.36-4.15-2.38a7.08,7.08,0,0,0-4.15,5.9v29.89C648.52,482.73,650.38,483.8,652.67,482.82Z" style="fill:#ee938c"/><line x1="635.17" y1="456.22" x2="635.17" y2="486.11" style="fill:#fff"/><path d="M635.17,490.25a7.08,7.08,0,0,0,4.15-5.9V454.46c0-2.29-1.86-3.36-4.15-2.39A7.1,7.1,0,0,0,631,458v29.89C631,490.16,632.88,491.23,635.17,490.25Z" style="fill:#e97067"/><line x1="617.67" y1="463.65" x2="617.67" y2="493.54" style="fill:#fff"/><path d="M617.67,497.68a7.08,7.08,0,0,0,4.15-5.9V461.89c0-2.29-1.86-3.36-4.15-2.39a7.1,7.1,0,0,0-4.14,5.91V495.3C613.53,497.59,615.38,498.65,617.67,497.68Z" style="fill:#ee938c"/><line x1="652.67" y1="613.36" x2="652.67" y2="643.25" style="fill:#fff"/><path d="M652.67,647.4a7.11,7.11,0,0,0,4.15-5.91V611.6c0-2.29-1.86-3.36-4.15-2.38a7.08,7.08,0,0,0-4.15,5.9V645C648.52,647.3,650.38,648.37,652.67,647.4Z" style="fill:#ee938c"/><line x1="635.17" y1="620.79" x2="635.17" y2="650.68" style="fill:#fff"/><path d="M635.17,654.82a7.08,7.08,0,0,0,4.15-5.9V619c0-2.29-1.86-3.36-4.15-2.38a7.07,7.07,0,0,0-4.14,5.9v29.89C631,654.73,632.88,655.8,635.17,654.82Z" style="fill:#ee938c"/><line x1="617.67" y1="628.22" x2="617.67" y2="658.11" style="fill:#fff"/><path d="M617.67,662.25a7.08,7.08,0,0,0,4.15-5.9V626.46c0-2.29-1.86-3.36-4.15-2.38a7.07,7.07,0,0,0-4.14,5.9v29.89C613.53,662.16,615.38,663.23,617.67,662.25Z" style="fill:#ee938c"/><line x1="670.17" y1="661.47" x2="670.17" y2="691.36" style="fill:#fff"/><path d="M670.17,695.51a7.11,7.11,0,0,0,4.15-5.91V659.71c0-2.29-1.86-3.35-4.15-2.38a7.09,7.09,0,0,0-4.15,5.9v29.89C666,695.41,667.88,696.48,670.17,695.51Z" style="fill:#e97067"/><line x1="652.67" y1="668.9" x2="652.67" y2="698.79" style="fill:#fff"/><path d="M652.67,702.94a7.11,7.11,0,0,0,4.15-5.91V667.14c0-2.29-1.86-3.35-4.15-2.38a7.08,7.08,0,0,0-4.15,5.9v29.89C648.52,702.84,650.38,703.91,652.67,702.94Z" style="fill:#ee938c"/><line x1="635.17" y1="676.33" x2="635.17" y2="706.22" style="fill:#fff"/><path d="M635.17,710.37a7.11,7.11,0,0,0,4.15-5.91V674.57c0-2.29-1.86-3.36-4.15-2.38a7.07,7.07,0,0,0-4.14,5.9V708C631,710.27,632.88,711.34,635.17,710.37Z" style="fill:#e97067"/><line x1="617.67" y1="683.76" x2="617.67" y2="713.65" style="fill:#fff"/><path d="M617.67,717.79a7.08,7.08,0,0,0,4.15-5.9V682c0-2.29-1.86-3.36-4.15-2.38a7.07,7.07,0,0,0-4.14,5.9v29.89C613.53,717.7,615.38,718.77,617.67,717.79Z" style="fill:#ee938c"/><line x1="670.17" y1="717.02" x2="670.17" y2="746.9" style="fill:#fff"/><path d="M670.17,751.05a7.09,7.09,0,0,0,4.15-5.91V715.25c0-2.28-1.86-3.35-4.15-2.38a7.09,7.09,0,0,0-4.15,5.91v29.88C666,751,667.88,752,670.17,751.05Z" style="fill:#ee938c"/><line x1="652.67" y1="724.44" x2="652.67" y2="754.33" style="fill:#fff"/><path d="M652.67,758.48a7.11,7.11,0,0,0,4.15-5.91V722.68c0-2.29-1.86-3.35-4.15-2.38a7.08,7.08,0,0,0-4.15,5.9v29.89C648.52,758.38,650.38,759.45,652.67,758.48Z" style="fill:#ee938c"/><line x1="635.17" y1="731.87" x2="635.17" y2="761.76" style="fill:#fff"/><path d="M635.17,765.91a7.11,7.11,0,0,0,4.15-5.91V730.11c0-2.29-1.86-3.35-4.15-2.38a7.07,7.07,0,0,0-4.14,5.9v29.89C631,765.81,632.88,766.88,635.17,765.91Z" style="fill:#ee938c"/><line x1="617.67" y1="739.3" x2="617.67" y2="769.19" style="fill:#fff"/><path d="M617.67,773.33a7.08,7.08,0,0,0,4.15-5.9V737.54c0-2.29-1.86-3.36-4.15-2.38a7.07,7.07,0,0,0-4.14,5.9V771C613.53,773.24,615.38,774.31,617.67,773.33Z" style="fill:#ee938c"/><line x1="670.17" y1="772.56" x2="670.17" y2="802.44" style="fill:#fff"/><path d="M670.17,806.59a7.09,7.09,0,0,0,4.15-5.91V770.8c0-2.29-1.86-3.36-4.15-2.39a7.09,7.09,0,0,0-4.15,5.91V804.2C666,806.49,667.88,807.56,670.17,806.59Z" style="fill:#fff"/><line x1="652.67" y1="779.98" x2="652.67" y2="809.87" style="fill:#fff"/><path d="M652.67,814a7.09,7.09,0,0,0,4.15-5.91V778.22c0-2.29-1.86-3.35-4.15-2.38a7.09,7.09,0,0,0-4.15,5.91v29.88C648.52,813.92,650.38,815,652.67,814Z" style="fill:#fff"/><line x1="635.17" y1="787.41" x2="635.17" y2="817.3" style="fill:#fff"/><path d="M635.17,821.45a7.11,7.11,0,0,0,4.15-5.91V785.65c0-2.29-1.86-3.35-4.15-2.38a7.07,7.07,0,0,0-4.14,5.9v29.89C631,821.35,632.88,822.42,635.17,821.45Z" style="fill:#e97067"/><line x1="617.67" y1="794.84" x2="617.67" y2="824.73" style="fill:#fff"/><path d="M617.67,828.88a7.11,7.11,0,0,0,4.15-5.91V793.08c0-2.29-1.86-3.36-4.15-2.38a7.07,7.07,0,0,0-4.14,5.9v29.89C613.53,828.78,615.38,829.85,617.67,828.88Z" style="fill:#e97067"/><line x1="670.17" y1="828.1" x2="670.17" y2="857.98" style="fill:#fff"/><path d="M670.17,862.13a7.09,7.09,0,0,0,4.15-5.91V826.34c0-2.29-1.86-3.36-4.15-2.39a7.09,7.09,0,0,0-4.15,5.91v29.88C666,862,667.88,863.1,670.17,862.13Z" style="fill:#fff"/><line x1="652.67" y1="835.53" x2="652.67" y2="865.41" style="fill:#fff"/><path d="M652.67,869.56a7.09,7.09,0,0,0,4.15-5.91V833.77c0-2.29-1.86-3.36-4.15-2.39a7.09,7.09,0,0,0-4.15,5.91v29.88C648.52,869.46,650.38,870.53,652.67,869.56Z" style="fill:#fff"/><line x1="635.17" y1="842.95" x2="635.17" y2="872.84" style="fill:#fff"/><path d="M635.17,877a7.11,7.11,0,0,0,4.15-5.91V841.19c0-2.29-1.86-3.35-4.15-2.38a7.08,7.08,0,0,0-4.14,5.91V874.6C631,876.89,632.88,878,635.17,877Z" style="fill:#e97067"/><line x1="617.67" y1="850.38" x2="617.67" y2="880.27" style="fill:#fff"/><path d="M617.67,884.42a7.11,7.11,0,0,0,4.15-5.91V848.62c0-2.29-1.86-3.35-4.15-2.38a7.07,7.07,0,0,0-4.14,5.9V882C613.53,884.32,615.38,885.39,617.67,884.42Z" style="fill:#ee938c"/><line x1="670.17" y1="883.64" x2="670.17" y2="913.52" style="fill:#fff"/><path d="M670.17,917.67a7.09,7.09,0,0,0,4.15-5.91V881.88c0-2.29-1.86-3.36-4.15-2.39A7.09,7.09,0,0,0,666,885.4v29.88C666,917.57,667.88,918.64,670.17,917.67Z" style="fill:#fff"/><line x1="652.67" y1="891.07" x2="652.67" y2="920.95" style="fill:#fff"/><path d="M652.67,925.1a7.09,7.09,0,0,0,4.15-5.91V889.31c0-2.29-1.86-3.36-4.15-2.39a7.09,7.09,0,0,0-4.15,5.91v29.88C648.52,925,650.38,926.07,652.67,925.1Z" style="fill:#fff"/><line x1="635.17" y1="898.5" x2="635.17" y2="928.38" style="fill:#fff"/><path d="M635.17,932.53a7.09,7.09,0,0,0,4.15-5.91V896.74c0-2.29-1.86-3.36-4.15-2.39a7.08,7.08,0,0,0-4.14,5.91v29.88C631,932.43,632.88,933.5,635.17,932.53Z" style="fill:#fff"/><line x1="617.67" y1="905.92" x2="617.67" y2="935.81" style="fill:#fff"/><path d="M617.67,940a7.11,7.11,0,0,0,4.15-5.91V904.16c0-2.29-1.86-3.35-4.15-2.38a7.08,7.08,0,0,0-4.14,5.9v29.89C613.53,939.86,615.38,940.93,617.67,940Z" style="fill:#fff"/><line x1="670.17" y1="939.18" x2="670.17" y2="969.06" style="fill:#fff"/><path d="M670.17,973.21a7.09,7.09,0,0,0,4.15-5.91V937.42c0-2.29-1.86-3.36-4.15-2.39a7.09,7.09,0,0,0-4.15,5.91v29.88C666,973.11,667.88,974.18,670.17,973.21Z" style="fill:#fff"/><line x1="652.67" y1="946.61" x2="652.67" y2="976.49" style="fill:#fff"/><path d="M652.67,980.64a7.09,7.09,0,0,0,4.15-5.91V944.85c0-2.29-1.86-3.36-4.15-2.39a7.09,7.09,0,0,0-4.15,5.91v29.88C648.52,980.54,650.38,981.61,652.67,980.64Z" style="fill:#fff"/><line x1="635.17" y1="954.04" x2="635.17" y2="983.92" style="fill:#fff"/><path d="M635.17,988.07a7.09,7.09,0,0,0,4.15-5.91V952.28c0-2.29-1.86-3.36-4.15-2.39A7.08,7.08,0,0,0,631,955.8v29.88C631,988,632.88,989,635.17,988.07Z" style="fill:#fff"/><line x1="617.67" y1="961.47" x2="617.67" y2="991.35" style="fill:#fff"/><path d="M617.67,995.5a7.09,7.09,0,0,0,4.15-5.91V959.7c0-2.28-1.86-3.35-4.15-2.38a7.08,7.08,0,0,0-4.14,5.91v29.88C613.53,995.4,615.38,996.47,617.67,995.5Z" style="fill:#fff"/><line x1="670.17" y1="994.72" x2="670.17" y2="1024.6" style="fill:#fff"/><path d="M670.17,1028.75a7.09,7.09,0,0,0,4.15-5.91V993c0-2.29-1.86-3.36-4.15-2.39a7.09,7.09,0,0,0-4.15,5.91v29.88C666,1028.65,667.88,1029.72,670.17,1028.75Z" style="fill:#fff"/><line x1="652.67" y1="1002.15" x2="652.67" y2="1032.03" style="fill:#fff"/><path d="M652.67,1036.18a7.09,7.09,0,0,0,4.15-5.91v-29.88c0-2.29-1.86-3.36-4.15-2.39a7.09,7.09,0,0,0-4.15,5.91v29.88C648.52,1036.08,650.38,1037.15,652.67,1036.18Z" style="fill:#fff"/><line x1="635.17" y1="1009.58" x2="635.17" y2="1039.46" style="fill:#fff"/><path d="M635.17,1043.61a7.09,7.09,0,0,0,4.15-5.91v-29.88c0-2.29-1.86-3.36-4.15-2.39a7.08,7.08,0,0,0-4.14,5.91v29.88C631,1043.51,632.88,1044.58,635.17,1043.61Z" style="fill:#fff"/><line x1="617.67" y1="1017.01" x2="617.67" y2="1046.89" style="fill:#fff"/><path d="M617.67,1051a7.09,7.09,0,0,0,4.15-5.91v-29.88c0-2.29-1.86-3.36-4.15-2.39a7.08,7.08,0,0,0-4.14,5.91v29.88C613.53,1050.94,615.38,1052,617.67,1051Z" style="fill:#fff"/><polygon points="685.8 244.42 602.08 279.96 519.52 244.42 602.83 214.07 685.8 244.42" style="fill:#f5c2be"/><path d="M761.87,1076.39c0,9.29-28.4,16.82-63.43,16.82S635,1085.13,635,1075.83v-294c0-9.29,28.4-16.83,63.42-16.83s63.43,7.54,63.43,16.83Z" style="fill:#717171"/><ellipse cx="698.44" cy="975.6" rx="63.42" ry="16.83" style="fill:#a4a4a4;opacity:0.53"/><ellipse cx="698.44" cy="999.99" rx="63.42" ry="16.83" style="fill:#a4a4a4;opacity:0.53"/><ellipse cx="695.31" cy="1025.05" rx="66.98" ry="17.77" style="fill:#a4a4a4;opacity:0.53"/><ellipse cx="695.31" cy="1049.57" rx="66.98" ry="17.77" style="fill:#a4a4a4;opacity:0.53"/><ellipse cx="695.31" cy="1075.45" rx="66.98" ry="17.77" style="fill:#a4a4a4;opacity:0.53"/><ellipse cx="698.44" cy="950.58" rx="63.42" ry="16.83" style="fill:#a4a4a4;opacity:0.53"/><ellipse cx="698.44" cy="925.55" rx="63.42" ry="16.83" style="fill:#a4a4a4;opacity:0.53"/><ellipse cx="698.44" cy="900.53" rx="63.42" ry="16.83" style="fill:#a4a4a4;opacity:0.53"/><ellipse cx="698.44" cy="875.5" rx="63.42" ry="16.83" style="fill:#a4a4a4;opacity:0.53"/><ellipse cx="698.44" cy="850.48" rx="63.42" ry="16.83" style="fill:#a4a4a4;opacity:0.53"/><ellipse cx="698.44" cy="827.55" rx="63.42" ry="16.83" style="fill:#a4a4a4;opacity:0.53"/><ellipse cx="698.44" cy="803.83" rx="63.42" ry="16.83" style="fill:#a4a4a4;opacity:0.53"/><ellipse cx="698.44" cy="779.22" rx="63.42" ry="16.83" style="fill:#585858"/><ellipse cx="698.44" cy="779.22" rx="63.42" ry="16.83" style="fill:#979797"/><path d="M738.59,776.63c0,5.88-18,10.65-40.15,10.65s-40.14-4.77-40.14-10.65V757c0-5.88,18-10.65,40.14-10.65s40.15,4.77,40.15,10.65Z" style="fill:#717171"/><ellipse cx="698.44" cy="757.02" rx="40.14" ry="10.65" style="fill:#979797"/><path d="M724.91,753.36c0,3.88-11.85,7-26.47,7s-26.47-3.14-26.47-7V740.43c0-3.88,11.86-7,26.47-7s26.47,3.14,26.47,7Z" style="fill:#717171"/><path d="M715.3,735l-16.86,3.32v-2l11.36-2.28a92.5,92.5,0,0,0-11.36-.67c-14.61,0-26.47,3.14-26.47,7s11.86,7,26.47,7,26.47-3.14,26.47-7C724.91,738.25,721.17,736.3,715.3,735Z" style="fill:#979797"/><path d="M698.44,738.33,715.3,735c-1.67-.36-3.52-.68-5.5-.93l-11.36,2.28Z" style="fill:#575757"/><rect x="696.36" y="694.04" width="4.17" height="44.3" rx="2.09" style="fill:#fff"/><circle cx="698.44" cy="690.79" r="5.34" style="fill:#fff"/><polygon points="507.63 435.74 460.44 448.48 460.44 431.99 507.63 419.25 507.63 435.74" style="fill:#7c7c7c"/><polygon points="429.64 435.74 460.44 448.48 460.44 431.99 429.64 419.25 429.64 435.74" style="fill:#aeaeae"/><polygon points="460.44 431.99 429.64 419.25 473.24 408.23 507.63 419.25 460.44 431.99" style="fill:#cbcbcb"/><polygon points="493.78 418.75 461.92 427.35 461.92 416.21 493.78 407.61 493.78 418.75" style="fill:#7c7c7c"/><polygon points="441.12 418.75 461.92 427.35 461.92 416.21 441.12 407.61 441.12 418.75" style="fill:#aeaeae"/><polygon points="461.92 416.21 441.12 407.61 470.56 400.17 493.78 407.61 461.92 416.21" style="fill:#cbcbcb"/><polygon points="482.72 406.19 462.96 411.53 462.96 404.62 464.6 385.7 482.72 406.19" style="fill:#7c7c7c"/><polygon points="450.06 406.19 462.96 411.53 462.96 404.62 464.6 385.7 450.06 406.19" style="fill:#aeaeae"/><polygon points="278.71 803.3 237.94 787.49 237.94 778.67 278.71 794.48 278.71 803.3" style="fill:#dedfe0"/><polygon points="278.71 824.46 237.94 808.65 237.94 799.83 278.71 815.64 278.71 824.46" style="fill:#dedfe0"/><polygon points="278.71 845.62 237.94 829.81 237.94 820.99 278.71 836.8 278.71 845.62" style="fill:#dedfe0"/><polygon points="278.71 866.78 237.94 850.97 237.94 842.15 278.71 857.97 278.71 866.78" style="fill:#dedfe0"/><polygon points="278.71 887.95 237.94 872.13 237.94 863.31 278.71 879.13 278.71 887.95" style="fill:#dedfe0"/><polygon points="278.71 909.11 237.94 893.29 237.94 884.47 278.71 900.29 278.71 909.11" style="fill:#dedfe0"/><polygon points="278.71 930.27 237.94 914.46 237.94 905.64 278.71 921.45 278.71 930.27" style="fill:#dedfe0"/><polygon points="278.71 951.43 237.94 935.62 237.94 926.8 278.71 942.61 278.71 951.43" style="fill:#dedfe0"/><polygon points="278.71 972.59 237.94 956.78 237.94 947.96 278.71 963.77 278.71 972.59" style="fill:#dedfe0"/><polygon points="278.71 993.75 237.94 977.94 237.94 969.12 278.71 984.93 278.71 993.75" style="fill:#dedfe0"/><polygon points="278.71 1014.91 237.94 999.1 237.94 990.28 278.71 1006.09 278.71 1014.91" style="fill:#dedfe0"/><polygon points="290.63 803.3 331.4 787.49 331.4 778.67 290.63 794.48 290.63 803.3" style="fill:#9d9d9d"/><polygon points="290.63 845.62 331.4 829.81 331.4 820.99 290.63 836.8 290.63 845.62" style="fill:#9d9d9d"/><polygon points="290.63 887.95 331.4 872.13 331.4 863.31 290.63 879.13 290.63 887.95" style="fill:#9d9d9d"/><polygon points="290.63 930.27 331.4 914.46 331.4 905.64 290.63 921.45 290.63 930.27" style="fill:#9d9d9d"/><polygon points="290.63 972.59 331.4 956.78 331.4 947.96 290.63 963.77 290.63 972.59" style="fill:#9d9d9d"/><polygon points="290.63 1014.91 331.4 999.1 331.4 990.28 290.63 1006.09 290.63 1014.91" style="fill:#9d9d9d"/><polygon points="376.25 600.71 307.77 574.68 307.77 557.42 376.25 583.45 376.25 600.71" style="fill:#e45449"/><polygon points="376.25 600.71 444.74 574.68 444.74 557.42 376.25 583.45 376.25 600.71" style="fill:#df3326"/><polygon points="376.25 617.97 307.77 591.93 307.77 574.68 376.25 600.71 376.25 617.97" style="fill:#dedfe0"/><polygon points="376.25 617.97 444.74 591.93 444.74 574.68 376.25 600.71 376.25 617.97" style="fill:#9d9d9d"/><polygon points="376.25 635.23 307.77 609.19 307.77 591.93 376.25 617.97 376.25 635.23" style="fill:#e45449"/><polygon points="376.25 635.23 444.74 609.19 444.74 591.93 376.25 617.97 376.25 635.23" style="fill:#df3326"/><polygon points="376.25 652.49 307.77 626.45 307.77 609.19 376.25 635.23 376.25 652.49" style="fill:#dedfe0"/><polygon points="376.25 652.49 444.74 626.45 444.74 609.19 376.25 635.23 376.25 652.49" style="fill:#9d9d9d"/><polygon points="376.25 669.74 307.77 643.71 307.77 626.45 376.25 652.49 376.25 669.74" style="fill:#e45449"/><polygon points="376.25 669.74 444.74 643.71 444.74 626.45 376.25 652.49 376.25 669.74" style="fill:#df3326"/><polygon points="376.25 687 307.77 660.97 307.77 643.71 376.25 669.74 376.25 687" style="fill:#dedfe0"/><polygon points="376.25 687 444.74 660.97 444.74 643.71 376.25 669.74 376.25 687" style="fill:#9d9d9d"/><polygon points="376.25 704.26 307.77 678.23 307.77 660.97 376.25 687 376.25 704.26" style="fill:#e45449"/><polygon points="376.25 704.26 444.74 678.23 444.74 660.97 376.25 687 376.25 704.26" style="fill:#df3326"/><polygon points="376.25 721.52 307.77 695.49 307.77 678.23 376.25 704.26 376.25 721.52" style="fill:#dedfe0"/><polygon points="376.25 721.52 444.74 695.49 444.74 678.23 376.25 704.26 376.25 721.52" style="fill:#9d9d9d"/><polygon points="376.25 738.78 307.77 712.74 307.77 695.49 376.25 721.52 376.25 738.78" style="fill:#e45449"/><polygon points="376.25 738.78 444.74 712.74 444.74 695.49 376.25 721.52 376.25 738.78" style="fill:#df3326"/><polygon points="376.25 756.04 307.77 730 307.77 712.74 376.25 738.78 376.25 756.04" style="fill:#dedfe0"/><polygon points="376.25 756.04 444.74 730 444.74 712.74 376.25 738.78 376.25 756.04" style="fill:#9d9d9d"/><polygon points="376.25 773.29 307.77 747.26 307.77 730 376.25 756.04 376.25 773.29" style="fill:#e45449"/><polygon points="376.25 773.29 444.74 747.26 444.74 730 376.25 756.04 376.25 773.29" style="fill:#df3326"/><polygon points="376.25 790.55 307.77 764.52 307.77 747.26 376.25 773.29 376.25 790.55" style="fill:#dedfe0"/><polygon points="376.25 790.55 444.74 764.52 444.74 747.26 376.25 773.29 376.25 790.55" style="fill:#9d9d9d"/><polygon points="376.25 807.81 307.77 781.78 307.77 764.52 376.25 790.55 376.25 807.81" style="fill:#e45449"/><polygon points="376.25 807.81 444.74 781.78 444.74 764.52 376.25 790.55 376.25 807.81" style="fill:#df3326"/><polygon points="376.25 825.07 307.77 799.04 307.77 781.78 376.25 807.81 376.25 825.07" style="fill:#dedfe0"/><polygon points="376.25 825.07 444.74 799.04 444.74 781.78 376.25 807.81 376.25 825.07" style="fill:#898989"/><polygon points="376.25 842.33 307.77 816.29 307.77 799.04 376.25 825.07 376.25 842.33" style="fill:#e45449"/><polygon points="376.25 842.33 444.74 816.29 444.74 799.04 376.25 825.07 376.25 842.33" style="fill:#df3326"/><polygon points="376.25 859.59 307.77 833.55 307.77 816.29 376.25 842.33 376.25 859.59" style="fill:#dedfe0"/><polygon points="376.25 859.59 444.74 833.55 444.74 816.29 376.25 842.33 376.25 859.59" style="fill:#9d9d9d"/><polygon points="376.25 876.85 307.77 850.81 307.77 833.55 376.25 859.59 376.25 876.85" style="fill:#e45449"/><polygon points="376.25 876.85 444.74 850.81 444.74 833.55 376.25 859.59 376.25 876.85" style="fill:#df3326"/><polygon points="376.25 894.1 307.77 868.07 307.77 850.81 376.25 876.85 376.25 894.1" style="fill:#dedfe0"/><polygon points="376.25 894.1 444.74 868.07 444.74 850.81 376.25 876.85 376.25 894.1" style="fill:#9d9d9d"/><polygon points="376.25 911.36 307.77 885.33 307.77 868.07 376.25 894.1 376.25 911.36" style="fill:#e45449"/><polygon points="376.25 911.36 444.74 885.33 444.74 868.07 376.25 894.1 376.25 911.36" style="fill:#df3326"/><polygon points="376.25 928.62 307.77 902.59 307.77 885.33 376.25 911.36 376.25 928.62" style="fill:#dedfe0"/><polygon points="376.25 928.62 444.74 902.59 444.74 885.33 376.25 911.36 376.25 928.62" style="fill:#9d9d9d"/><polygon points="376.25 945.88 307.77 919.85 307.77 902.59 376.25 928.62 376.25 945.88" style="fill:#e45449"/><polygon points="376.25 945.88 444.74 919.85 444.74 902.59 376.25 928.62 376.25 945.88" style="fill:#df3326"/><polygon points="376.25 963.14 307.77 937.1 307.77 919.85 376.25 945.88 376.25 963.14" style="fill:#dedfe0"/><polygon points="376.25 963.14 444.74 937.1 444.74 919.85 376.25 945.88 376.25 963.14" style="fill:#9d9d9d"/><polygon points="376.25 980.4 307.77 954.36 307.77 937.1 376.25 963.14 376.25 980.4" style="fill:#e45449"/><polygon points="376.25 980.4 444.74 954.36 444.74 937.1 376.25 963.14 376.25 980.4" style="fill:#df3326"/><polygon points="376.25 997.65 307.77 971.62 307.77 954.36 376.25 980.4 376.25 997.65" style="fill:#dedfe0"/><polygon points="376.25 997.65 444.74 971.62 444.74 954.36 376.25 980.4 376.25 997.65" style="fill:#9d9d9d"/><polygon points="376.25 1014.91 307.77 988.88 307.77 971.62 376.25 997.65 376.25 1014.91" style="fill:#e45449"/><polygon points="376.25 1014.91 444.74 988.88 444.74 971.62 376.25 997.65 376.25 1014.91" style="fill:#df3326"/><polygon points="376.25 1032.17 307.77 1006.14 307.77 988.88 376.25 1014.91 376.25 1032.17" style="fill:#dedfe0"/><polygon points="376.25 1032.17 444.74 1006.14 444.74 988.88 376.25 1014.91 376.25 1032.17" style="fill:#9d9d9d"/><polygon points="376.25 1049.43 307.77 1023.4 307.77 1006.14 376.25 1032.17 376.25 1049.43" style="fill:#e45449"/><polygon points="376.25 1049.43 444.74 1023.4 444.74 1006.14 376.25 1032.17 376.25 1049.43" style="fill:#df3326"/><polygon points="376.25 1066.69 307.77 1040.65 307.77 1023.4 376.25 1049.43 376.25 1066.69" style="fill:#dedfe0"/><polygon points="376.25 1066.69 444.74 1040.65 444.74 1023.4 376.25 1049.43 376.25 1066.69" style="fill:#9d9d9d"/><polygon points="376.25 583.45 307.77 557.42 376.25 532.49 444.74 557.42 376.25 583.45" style="fill:#f2f2f2"/><polygon points="489.57 1107.44 399.13 1067.05 399.13 831.47 489.57 871.87 489.57 1107.44" style="fill:#fdca56"/><polygon points="417.63 1066.25 409.12 1062.45 409.12 847.58 417.63 851.38 417.63 1066.25" style="fill:#fee5ab"/><polygon points="433.3 1073.25 424.79 1069.45 424.79 854.58 433.3 858.38 433.3 1073.25" style="fill:#fee5ab"/><polygon points="448.98 1080.25 440.47 1076.45 440.47 861.59 448.98 865.39 448.98 1080.25" style="fill:#fee5ab"/><polygon points="464.66 1087.26 456.15 1083.45 456.15 868.59 464.66 872.39 464.66 1087.26" style="fill:#fee5ab"/><polygon points="480.34 1094.26 471.83 1090.46 471.83 875.59 480.34 879.39 480.34 1094.26" style="fill:#fee5ab"/><polygon points="489.06 1107.42 545.33 1086.13 545.33 850.55 489.06 871.84 489.06 1107.42" style="fill:#fdb615"/><polygon points="498.13 879.96 498.13 1094.83 506.8 1091.74 506.8 876.88 498.13 879.96" style="fill:#ea8c23"/><polygon points="513.73 874.94 513.73 1089.8 522.4 1086.72 522.4 871.85 513.73 874.94" style="fill:#ea8c23"/><polygon points="529.26 869.9 529.26 1084.77 537.94 1081.69 537.94 866.82 529.26 869.9" style="fill:#ea8c23"/><polygon points="489.57 871.87 399.13 831.47 454.88 810.16 545.33 850.55 489.57 871.87" style="fill:#fee5ab"/><polygon points="677.42 968.76 677.42 1097.05 603.06 1128.48 603.06 993.27 677.42 968.76" style="fill:#ea8c23"/><polygon points="651.69 1081.69 651.69 1107.97 634.61 1115.19 634.61 1087.96 651.69 1081.69" style="opacity:0.89"/><polygon points="603.06 993.27 603.06 1128.48 528.69 1097.05 528.69 968.76 603.06 993.27" style="fill:#eea34f"/><polygon points="603.07 944.24 677.42 968.76 603.07 993.27 528.69 968.76 603.07 944.24" style="fill:#f1b775"/><rect x="462.49" y="346.02" width="4.17" height="44.3" rx="2.09" style="fill:#7c7c7c"/><circle cx="464.57" cy="342.77" r="5.34" style="fill:#7c7c7c"/><polygon points="474.33 478.3 465.36 480.74 465.36 468.84 474.33 466.4 474.33 478.3" style="fill:#9d9d9d"/><polygon points="489.9 488.89 480.93 491.33 480.93 479.43 489.9 476.99 489.9 488.89" style="fill:#9d9d9d"/><polygon points="506.46 485.09 497.49 487.54 497.49 475.63 506.46 473.19 506.46 485.09" style="fill:#9d9d9d"/><polygon points="506.46 503.91 497.49 506.35 497.49 494.45 506.46 492.01 506.46 503.91" style="fill:#9d9d9d"/><polygon points="489.9 541.4 480.93 543.85 480.93 531.94 489.9 529.5 489.9 541.4" style="fill:#9d9d9d"/><polygon points="475.03 561.61 466.06 564.05 466.06 552.15 475.03 549.71 475.03 561.61" style="fill:#9d9d9d"/><polygon points="516.76 547.11 507.79 549.55 507.79 537.65 516.76 535.21 516.76 547.11" style="fill:#9d9d9d"/><path d="M919.06,562.09c0,4.8-14.67,8.69-32.77,8.69s-32.78-3.89-32.78-8.69V539.7c0-4.8,14.68-8.69,32.78-8.69s32.77,3.89,32.77,8.69Z" style="fill:#898989"/><ellipse cx="886.29" cy="546.72" rx="32.77" ry="8.7" style="fill:#898989"/><ellipse cx="886.29" cy="539.7" rx="32.77" ry="8.7" style="fill:#f0f0f0"/><polygon points="200.58 1020.71 193.3 1033.03 377.87 1140.56 498.72 1140.56 200.58 1020.71"/><polygon points="197.4 1026.04 437.85 1140.54 428.16 1140.56 197.27 1026.32 197.4 1026.04" style="fill:#fff"/><path d="M248.44,1061.18l63.17,31.43a45.26,45.26,0,0,0,11.75.4c6.35-.64,16.66-3.28,19-10a22.34,22.34,0,0,0,.45-12.91l-3.13-5.58-3.14-5.1s-10.64-6.51-15.09-8.42-17.33-13.66-17.33-13.66c-5.68-1.56-22.73-5.61-30-4.58s-18,4.93-18,4.93-.52,6.27-1.76,7.14-3.51,3.12-3.9,5.65-1.94,2.73-2,3.29S248.44,1061.18,248.44,1061.18Z" style="fill:#df3326"/><path d="M291.44,1060.26l-28.37-11.42-.32-5.19s-1.2-4.44,2.21-4.67,13.39,1.83,16.71,4.11,6.93,9.7,9.88,14S291.44,1060.26,291.44,1060.26Z" style="fill:#fff"/><path d="M325,1074.48s-5.43-1.93-7.59-1.6,1.46,4.34,4.49,5.91,8.19-.38,8.74-.63,2.17-1,.06-1.72S325,1074.48,325,1074.48Z" style="fill:#fff"/><path d="M342.27,1078s-4,4.15-7.82,5.23-6.24,2.33-5.75,3.56,3,2.38,5.72,1.4,6.65-4.68,7.73-6.44A4.28,4.28,0,0,0,342.27,1078Z" style="fill:#fff"/><ellipse cx="301.03" cy="1084.52" rx="7.26" ry="9.72" transform="translate(-189.57 71.55) rotate(-10.33)"/><ellipse cx="255.36" cy="1061.66" rx="3.62" ry="6.76" transform="translate(-53.24 14.24) rotate(-2.89)"/><path d="M303.18,1038.84s-14.78,3.85-16.28,3.71,9.7,16.53,9.7,16.53,12.88,2.08,18.42-1,5.59-4.68,5.59-4.68Z" style="fill:#fff"/><g style="opacity:0.76"><line x1="959.94" y1="642.65" x2="959.94" y2="642.65" style="fill:none;stroke:#fff;stroke-linecap:round;stroke-miterlimit:10;stroke-width:8.05304442286492px"/><path d="M973,645.85c62.76,16,100.2,36.23,100.2,58.21,0,52-209.41,94.11-467.73,94.11S137.77,756,137.77,704.06c0-22.68,39.88-43.49,106.31-59.74" style="fill:none;stroke:#fff;stroke-linecap:round;stroke-miterlimit:10;stroke-width:8.05304442286492px;stroke-dasharray:0,13.470205307006836"/><line x1="250.63" y1="642.75" x2="250.63" y2="642.75" style="fill:none;stroke:#fff;stroke-linecap:round;stroke-miterlimit:10;stroke-width:8.05304442286492px"/></g><path d="M780.31,838.82c0,13.67,53.34,24.79,118.9,24.79,17.84,0,34.77-.83,50-2.3v-45c-15.2-1.48-32.13-2.3-50-2.3C833.65,814,780.31,825.16,780.31,838.82Z" style="fill:none"/><path d="M1018.1,838.82c0-10-28.26-18.54-68.92-22.48v45C989.84,857.37,1018.1,848.77,1018.1,838.82Z" style="fill:none"/><path d="M1038.23,836.7c-.75-10.55-35.41-16.85-89.07-16.54v4.37c40.8.38,65.74,5.49,66.33,13.8S988.3,854.25,948,860.46l.42,5.9C1001.56,859,1039,847.25,1038.23,836.7Z" style="fill:#fff"/><polygon points="948.82 861.08 801.04 875.72 870.11 888.5 996.04 857.89 948.82 861.08" style="fill:#fff"/><line x1="899.21" y1="881.46" x2="899.21" y2="1061.24" style="fill:none;stroke:#fff;stroke-linecap:round;stroke-miterlimit:10;stroke-width:8.9px"/><line x1="967.66" y1="862.74" x2="967.66" y2="1021.47" style="fill:none;stroke:#fff;stroke-linecap:round;stroke-miterlimit:10;stroke-width:5.34px"/><polyline points="883.78 803.94 891.86 804.25 916.97 805.21" style="fill:none;stroke:#fff;stroke-linecap:round;stroke-miterlimit:10;stroke-width:1.78px"/><polyline points="891.86 804.25 890.46 813.51 906.91 805.21" style="fill:none;stroke:#fff;stroke-linecap:round;stroke-miterlimit:10;stroke-width:1.78px"/><path d="M908.65,813.85a55.44,55.44,0,0,0-15.76,27.33c-3.52,15.54-4,26.42-2.43,30.9l5.68,5.11,75.71-19.8V833Z" style="fill:#4d4d4d"/><path d="M893.53,841.82a59.26,59.26,0,0,1,15.12-28s-27-1.45-31.68-.46-22,6.93-25.57,21.29-2.06,23.51-2.06,23.51l-2.64,1.24s0,6.79,1.47,8,2.05,5.39,7.64,6.63,31.74,3.46,37.32,3.71l3-.56C894.59,872.7,890,857.36,893.53,841.82Z" style="fill:#6e6e6e"/><rect x="849.91" y="854.35" width="8.75" height="4.09" rx="2.04" style="fill:#fdb615"/><rect x="875.49" y="854.61" width="10.03" height="4.68" rx="2.34" style="fill:#fdb615"/><polygon points="877.11 817.83 879.93 815.13 890.46 815.13 887.89 818.19 877.11 817.83" style="fill:#fff"/><path d="M894.92,822.77h-30.5s-9,3.72-10,23.47l30.29.87S885.66,832.93,894.92,822.77Z" style="fill:#fff"/><polygon points="918.7 825.07 919.13 848.66 969.61 849.05 969.61 836.31 918.7 825.07" style="fill:#fff"/><line x1="931.44" y1="826.49" x2="931.44" y2="852.86" style="fill:none;stroke:#4d4d4d;stroke-miterlimit:10;stroke-width:3.80740938966688px"/><line x1="943.3" y1="827.92" x2="943.3" y2="852.15" style="fill:none;stroke:#4d4d4d;stroke-miterlimit:10;stroke-width:3.26349376257161px"/><line x1="952.38" y1="830.78" x2="952.38" y2="852.86" style="fill:none;stroke:#4d4d4d;stroke-miterlimit:10;stroke-width:2.71957813547634px"/><line x1="959.06" y1="830.33" x2="959.06" y2="850.28" style="fill:none;stroke:#4d4d4d;stroke-miterlimit:10;stroke-width:2.17566250838107px"/><line x1="963.92" y1="831.4" x2="963.92" y2="851.35" style="fill:none;stroke:#4d4d4d;stroke-miterlimit:10;stroke-width:1.6317468812858px"/><line x1="967.67" y1="831.87" x2="967.67" y2="850.75" style="fill:none;stroke:#4d4d4d;stroke-miterlimit:10;stroke-width:1.08783125419053px"/></g><g id="Layer_3" data-name="Layer 3"><polygon points="641.89 965.69 668.39 966.96 650.75 976.81 641.89 965.69" style="opacity:0.49"/><rect x="542.64" y="868.71" width="108.1" height="108.1" style="fill:#fff;stroke:#000;stroke-miterlimit:10;stroke-width:1.958px"/><rect x="563.69" y="887.25" width="67.25" height="55.39" rx="4.07" style="fill:none;stroke:#df3326;stroke-linejoin:round;stroke-width:3.916px"/><rect x="569.66" y="894.03" width="55.31" height="40.7" style="fill:none;stroke:#df3326;stroke-linejoin:round;stroke-width:3.916px"/><polygon points="639.21 953.49 552.91 953.49 562.9 943.02 631.72 943.02 639.21 953.49" style="fill:none;stroke:#df3326;stroke-linejoin:round;stroke-width:3.916px"/><path d="M639.21,955.35v-1c0,1.74-1.62,4.16-3.61,4.16H556.52c-2,0-3.61-2.42-3.61-4.16v1" style="fill:none;stroke:#df3326;stroke-linejoin:round;stroke-width:3.916px"/><path d="M595.81,914.41c0,5.88-4.45,10.65-9.94,10.65s-9.94-4.77-9.94-10.65,4.45-10.65,9.94-10.65a9.36,9.36,0,0,1,2,.22A10.49,10.49,0,0,1,595.81,914.41Z" style="fill:none;stroke:#df3326;stroke-linejoin:round;stroke-width:3.916px"/><polyline points="585.87 903.76 585.87 914.41 595.81 914.41" style="fill:none;stroke:#df3326;stroke-linejoin:round;stroke-width:3.916px"/><rect x="599.85" y="902.4" width="17.62" height="24.45" style="fill:none;stroke:#df3326;stroke-linejoin:round;stroke-width:3.916px"/><line x1="603.72" y1="909.09" x2="613.58" y2="909.09" style="fill:none;stroke:#df3326;stroke-linejoin:round;stroke-width:3.916px"/><line x1="603.72" y1="914.62" x2="613.58" y2="914.62" style="fill:none;stroke:#df3326;stroke-linejoin:round;stroke-width:3.916px"/><line x1="603.72" y1="919.62" x2="613.58" y2="919.62" style="fill:none;stroke:#df3326;stroke-linejoin:round;stroke-width:3.916px"/><path d="M1055.57,868.38v22.69h-2.72V874.81H1047v-2.17h.06c3.81,0,5.92-1.35,6.47-4.26Z"/><path d="M1068.18,887.51v3.56h-3.56v-3.56Z"/><path d="M1090.26,868.22c6.11,0,10.81,2.88,10.81,10.88s-3.71,12-11,12h-7.8V868.22Zm0,20.29c4.54,0,7.74-2.66,7.74-9,0-6.12-2.62-8.74-7.55-8.74h-5.22l0,17.73Z"/><path d="M1117.3,878.78v8.77c0,1.08.09,1.5.86,1.5a2.4,2.4,0,0,0,.83-.16V891a4,4,0,0,1-2,.45c-1.47,0-2.3-.83-2.3-2.56a7.28,7.28,0,0,1-5.83,2.56c-3.39,0-5.47-1.66-5.47-4.64a4.32,4.32,0,0,1,1.44-3.52c1.09-.89,2.75-1.44,6.66-1.95,2.43-.32,3.07-1,3.07-2.08,0-1.73-1.12-2.72-3.68-2.72s-4,1-4.13,3.13h-2.72c.16-3.68,2.72-5.53,7-5.53C1115.79,874.14,1117.3,876,1117.3,878.78Zm-7.78,10.27c3.42,0,5.06-2.08,5.06-3.78v-2.75a4.55,4.55,0,0,1-1.92.67c-.93.16-1.89.29-2.82.42-2.4.35-3.52,1.28-3.52,3C1106.32,888.15,1107.5,889.05,1109.52,889.05Z"/><path d="M1125.3,869.56v5h3.29v2.4h-3.29v10.37c0,1.31.67,1.38,2,1.38h1.25v2.4h-2.24c-3,0-3.77-.93-3.77-3.68V876.92h-2.82v-2.4h2.82v-5Z"/><path d="M1144.56,878.78v8.77c0,1.08.1,1.5.86,1.5a2.5,2.5,0,0,0,.84-.16V891a4,4,0,0,1-2,.45c-1.47,0-2.3-.83-2.3-2.56a7.26,7.26,0,0,1-5.82,2.56c-3.4,0-5.48-1.66-5.48-4.64a4.32,4.32,0,0,1,1.44-3.52c1.09-.89,2.76-1.44,6.66-1.95,2.43-.32,3.07-1,3.07-2.08,0-1.73-1.12-2.72-3.68-2.72s-4,1-4.13,3.13h-2.72c.16-3.68,2.72-5.53,7-5.53C1143.06,874.14,1144.56,876,1144.56,878.78Zm-7.78,10.27c3.43,0,5.06-2.08,5.06-3.78v-2.75a4.55,4.55,0,0,1-1.92.67c-.93.16-1.89.29-2.82.42-2.4.35-3.52,1.28-3.52,3C1133.58,888.15,1134.77,889.05,1136.78,889.05Z"/><path d="M1022.42,918.23h-2.82a3.86,3.86,0,0,0-4.09-3.29c-3.43,0-5.16,2.37-5.16,6.46,0,3.62,1.8,6.05,4.84,6.05a4.25,4.25,0,0,0,4.54-4h2.78c-.6,4.06-3.16,6.43-7.29,6.43-4.83,0-7.74-3.26-7.74-8.45s2.71-8.86,7.8-8.86C1019.28,912.54,1022,914.46,1022.42,918.23Z"/><path d="M1038.51,917.18V926c0,1.08.1,1.5.87,1.5a2.49,2.49,0,0,0,.83-.16v2.11a4,4,0,0,1-2,.45c-1.47,0-2.31-.83-2.31-2.56a7.26,7.26,0,0,1-5.82,2.56c-3.39,0-5.47-1.66-5.47-4.64a4.3,4.3,0,0,1,1.44-3.52c1.09-.89,2.75-1.44,6.65-2,2.44-.32,3.08-1,3.08-2.08,0-1.73-1.12-2.72-3.68-2.72s-4,1-4.13,3.13h-2.72c.16-3.67,2.72-5.53,7-5.53C1037,912.54,1038.51,914.36,1038.51,917.18Zm-7.77,10.27c3.42,0,5-2.08,5-3.78v-2.75a4.63,4.63,0,0,1-1.92.68c-.92.15-1.88.28-2.81.41-2.4.35-3.52,1.28-3.52,3C1027.54,926.55,1028.72,927.45,1030.74,927.45Z"/><path d="M1046.51,908v5h3.3v2.4h-3.3v10.37c0,1.31.68,1.38,2,1.38h1.25v2.4h-2.24c-3,0-3.78-.93-3.78-3.68V915.32H1041v-2.4h2.81v-5Z"/><path d="M1067.19,921.69V922H1054.8v.19c0,3.17,2,5.25,5.15,5.25a4,4,0,0,0,4.29-3.23h2.69c-.74,3.61-3.33,5.63-7.07,5.63-6.63,0-7.94-5.66-7.94-8.77,0-4.54,3-8.54,7.78-8.54S1067.19,916.38,1067.19,921.69Zm-2.88-2.08a4.77,4.77,0,0,0-4.8-4.67,4.71,4.71,0,0,0-4.71,4.67Z"/><path d="M1081.68,915.29h0v-2.37h2.56v15.23c0,5.22-2.46,8-7.65,8-3.55,0-6.71-1.48-6.87-4.87h2.72c.09,1.83,2.17,2.69,4.28,2.69,3.2,0,5-2.14,5-6.34v-1h-.06a5.49,5.49,0,0,1-5.15,3c-4.55,0-7.39-3.39-7.39-8.39a9.33,9.33,0,0,1,2.59-6.87,7,7,0,0,1,5-1.86A5.41,5.41,0,0,1,1081.68,915.29Zm-5,12c3.1,0,4.92-2.59,4.92-6.43,0-3.46-1.69-5.89-4.73-5.89s-4.86,2.4-4.86,6C1072,924.83,1073.68,927.26,1076.66,927.26Z"/><path d="M1103.54,921.21c0,4.9-2.85,8.64-8,8.64-4.83,0-8-3.36-8-8.64,0-5.12,3-8.67,8-8.67S1103.54,916.16,1103.54,921.21Zm-8,6.24c3,0,5.16-2.37,5.16-6.24s-2.18-6.27-5.19-6.27-5.12,2.3-5.12,6.27C1090.35,925,1092.46,927.45,1095.5,927.45Z"/><path d="M1115.34,912.54v2.88c-4.06,0-6,2.11-6,6.65v7.4h-2.72V912.92h2.56v3.49h.06c1.28-2.62,3.11-3.87,5.7-3.87Z"/><path d="M1120.27,906.62V910h-2.72v-3.33Zm0,6.3v16.55h-2.72V912.92Z"/><path d="M1138.86,921.69V922h-12.38v.19c0,3.17,2,5.25,5.15,5.25a4,4,0,0,0,4.29-3.23h2.69c-.74,3.61-3.33,5.63-7.07,5.63-6.63,0-7.94-5.66-7.94-8.77,0-4.54,3-8.54,7.78-8.54S1138.86,916.38,1138.86,921.69Zm-2.88-2.08a4.77,4.77,0,0,0-4.8-4.67,4.7,4.7,0,0,0-4.7,4.67Z"/><path d="M1153.93,917.72h-2.72v0c-.16-1.76-1.66-2.75-3.84-2.75s-3.51.77-3.51,2.11,1.18,1.92,3.42,2.43l2.4.55c3.2.73,5,2,5,4.6,0,3.46-2.94,5.22-7,5.22s-6.85-1.89-7-5.6h2.72c.07,2,1.7,3.2,4.45,3.2s4-.83,4-2.46a2,2,0,0,0-1-1.76c-.83-.55-1.86-.77-4.13-1.25-4.29-.9-5.66-2.37-5.66-4.74,0-2.91,2.59-4.7,6.2-4.7C1151.63,912.54,1153.71,914.27,1153.93,917.72Z"/><path d="M21,479.49v15h3.07v2.4H21v5.31H18.44v-5.31h-10v-2.63l10.33-14.75Zm-2.63,3.88-7.55,11.1h7.62v-11.1Z"/><path d="M31.59,498.63v3.55H28v-3.55Z"/><path d="M55.24,479.33l8.93,22.85H60.81l-2.5-6.88H48.65l-2.56,6.88H43l8.93-22.85Zm-1.76,2.75-3.87,10.66h7.74l-3.81-10.66Z"/><path d="M79.65,491.17v11H76.93V491a3.12,3.12,0,0,0-3.39-3.36c-3.1,0-4.86,2.08-4.86,5.09v9.44H66V485.64h2.56v2.62h.06a5.75,5.75,0,0,1,5.38-3C78,485.25,79.65,487.36,79.65,491.17Z"/><path d="M98.92,493.92c0,4.9-2.85,8.64-8,8.64-4.83,0-8-3.36-8-8.64,0-5.12,3-8.67,8-8.67S98.92,488.87,98.92,493.92Zm-8,6.24c3,0,5.15-2.36,5.15-6.24s-2.18-6.27-5.19-6.27-5.11,2.31-5.11,6.27C85.74,497.67,87.85,500.16,90.89,500.16Z"/><path d="M115.81,491.17v11h-2.72V491a3.12,3.12,0,0,0-3.39-3.36c-3.1,0-4.86,2.08-4.86,5.09v9.44h-2.72V485.64h2.56v2.62h.06a5.75,5.75,0,0,1,5.38-3C114.12,485.25,115.81,487.36,115.81,491.17Z"/><path d="M121.19,485.64,126,499.17h.07l4.64-13.53h2.88l-7,18.33a12.52,12.52,0,0,1-1.7,3.36,3.64,3.64,0,0,1-3.17,1.47,5.93,5.93,0,0,1-2-.28V506a5.5,5.5,0,0,0,1.6.38c1.09,0,1.85-.51,2.4-1.88l1-2.44-6.56-16.44Z"/><path d="M148.42,488.07a6.06,6.06,0,0,1,5.22-2.82c3.71,0,5.47,1.83,5.47,4.71v12.22h-2.72v-11c0-2.36-1-3.55-3.2-3.55a4,4,0,0,0-4.32,4.13v10.4h-2.72V491.24c0-2.37-1-3.59-3.1-3.59a4.18,4.18,0,0,0-3.68,2,4.51,4.51,0,0,0-.74,2.24v10.27h-2.72V485.64h2.56v2.43h.07a6.09,6.09,0,0,1,5.34-2.82C146.21,485.25,147.85,486.28,148.42,488.07Z"/><path d="M166.09,479.33v3.33h-2.72v-3.33Zm0,6.31v16.54h-2.72V485.64Z"/><path d="M182.47,485.64v1.85l-10.11,12.29h10.56v2.4H169V500.1L179,488h-9.34v-2.4Z"/><path d="M198.63,489.89v8.77c0,1.09.1,1.5.86,1.5a2.5,2.5,0,0,0,.84-.16v2.12a4.14,4.14,0,0,1-2,.44c-1.47,0-2.3-.83-2.3-2.56a7.26,7.26,0,0,1-5.82,2.56c-3.4,0-5.48-1.66-5.48-4.64a4.33,4.33,0,0,1,1.44-3.52c1.09-.89,2.76-1.44,6.66-1.95,2.43-.32,3.07-1,3.07-2.08,0-1.73-1.12-2.72-3.68-2.72s-4,1-4.13,3.14h-2.72c.16-3.68,2.72-5.54,7-5.54C197.13,485.25,198.63,487.08,198.63,489.89Zm-7.78,10.27c3.43,0,5.06-2.08,5.06-3.77v-2.75a4.69,4.69,0,0,1-1.92.67c-.93.16-1.89.29-2.82.41-2.4.36-3.52,1.28-3.52,3C187.65,499.27,188.84,500.16,190.85,500.16Z"/><path d="M206.63,480.68v5h3.3V488h-3.3V498.4c0,1.32.67,1.38,2.05,1.38h1.25v2.4h-2.24c-3,0-3.78-.93-3.78-3.68V488h-2.82v-2.4h2.82v-5Z"/><path d="M215.81,479.33v3.33h-2.72v-3.33Zm0,6.31v16.54h-2.72V485.64Z"/><path d="M235.2,493.92c0,4.9-2.84,8.64-8,8.64-4.83,0-8-3.36-8-8.64,0-5.12,3-8.67,8-8.67S235.2,488.87,235.2,493.92Zm-8,6.24c3,0,5.15-2.36,5.15-6.24s-2.17-6.27-5.18-6.27S222,490,222,493.92C222,497.67,224.13,500.16,227.17,500.16Z"/><path d="M252.1,491.17v11h-2.72V491a3.12,3.12,0,0,0-3.39-3.36c-3.11,0-4.87,2.08-4.87,5.09v9.44H238.4V485.64H241v2.62H241a5.72,5.72,0,0,1,5.37-3C250.4,485.25,252.1,487.36,252.1,491.17Z"/><path d="M990.79,590.87a5.16,5.16,0,0,1-3.14,4.54v.07c2.72.61,4.1,2.72,4.1,5.5,0,4.39-3.39,6.91-7.78,6.91s-7.58-2.43-7.58-7.13v-.26h2.72c.13,3.23,2,5,4.86,5,2.63,0,4.9-1.63,4.9-4.38s-1.92-4.35-4.93-4.35a14.32,14.32,0,0,0-1.53.09v-2.3c.25,0,.76,0,1.21,0,2.47,0,4.29-1.41,4.29-3.71s-1.6-3.65-4-3.65c-2.66,0-4.26,1.83-4.32,4.93h-2.72c.19-4.7,2.78-7.33,7-7.33S990.79,587.1,990.79,590.87Z"/><path d="M999.43,604v3.55h-3.55V604Z"/><path d="M1032.61,591.54h-3c-.64-3.1-3-4.86-6.4-4.86-5.15,0-7.74,4.06-7.74,9.25,0,5.79,2.75,9.56,7.77,9.56,3.81,0,6.31-2.59,6.6-6.59h3c-.64,5.89-4.26,9.15-9.89,9.15a9.78,9.78,0,0,1-7.74-3.23,12.71,12.71,0,0,1-2.82-8.67,13,13,0,0,1,2.91-8.67,10.16,10.16,0,0,1,7.9-3.36C1028.2,584.12,1031.94,586.9,1032.61,591.54Z"/><path d="M1051.33,599.25c0,4.9-2.85,8.64-8,8.64-4.83,0-8-3.36-8-8.64,0-5.12,3-8.67,8-8.67S1051.33,594.2,1051.33,599.25Zm-8,6.24c3,0,5.15-2.36,5.15-6.24s-2.17-6.27-5.18-6.27-5.12,2.31-5.12,6.27C1038.15,603,1040.26,605.49,1043.3,605.49Z"/><path d="M1057.41,584.66v22.85h-2.72V584.66Z"/><path d="M1064.52,584.66v22.85h-2.72V584.66Z"/><path d="M1083.11,599.73v.32h-12.39v.2c0,3.16,2,5.24,5.15,5.24a4,4,0,0,0,4.29-3.23h2.69c-.73,3.62-3.33,5.63-7.07,5.63-6.62,0-7.94-5.66-7.94-8.76,0-4.55,3-8.55,7.78-8.55S1083.11,594.42,1083.11,599.73Zm-2.88-2.08a4.77,4.77,0,0,0-4.8-4.67,4.71,4.71,0,0,0-4.71,4.67Z"/><path d="M1100,596.28h-2.82a3.85,3.85,0,0,0-4.09-3.3c-3.42,0-5.15,2.37-5.15,6.47,0,3.61,1.79,6,4.83,6a4.25,4.25,0,0,0,4.54-4h2.79c-.61,4.07-3.17,6.43-7.3,6.43-4.83,0-7.74-3.26-7.74-8.44s2.72-8.87,7.8-8.87C1096.83,590.58,1099.59,592.5,1100,596.28Z"/><path d="M1106.88,586v5h3.3v2.4h-3.3v10.36c0,1.32.67,1.38,2,1.38h1.25v2.4h-2.24c-3,0-3.78-.93-3.78-3.68V593.37h-2.81V591h2.81v-5Z"/><path d="M1116.07,584.66V588h-2.72v-3.33Zm0,6.31v16.54h-2.72V591Z"/><path d="M1135.46,599.25c0,4.9-2.85,8.64-8,8.64-4.84,0-8-3.36-8-8.64,0-5.12,3-8.67,8-8.67S1135.46,594.2,1135.46,599.25Zm-8,6.24c3,0,5.15-2.36,5.15-6.24s-2.18-6.27-5.19-6.27-5.12,2.31-5.12,6.27C1122.27,603,1124.39,605.49,1127.43,605.49Z"/><path d="M1152.35,596.5v11h-2.72V596.34a3.12,3.12,0,0,0-3.39-3.36c-3.1,0-4.86,2.08-4.86,5.09v9.44h-2.72V591h2.56v2.62h.06a5.75,5.75,0,0,1,5.38-3C1150.66,590.58,1152.35,592.69,1152.35,596.5Z"/><path d="M79.38,797.05a7.05,7.05,0,0,1-1.31,4.22c-1.44,2.12-4.22,3.52-6.59,5-2,1.21-3.59,2.56-4,4.54H79.16v2.4H64.34a11.42,11.42,0,0,1,1.47-5c2.24-3.71,7.24-5,9.6-7.9a5.11,5.11,0,0,0,1.09-3.3,4.13,4.13,0,0,0-4.38-4.13c-2.79,0-4.42,2.31-4.42,5.41v.23H65V798c0-4.61,3-7.46,7.3-7.46C76.25,790.52,79.38,792.83,79.38,797.05Z"/><path d="M87.57,809.66v3.55H84v-3.55Z"/><path d="M120.76,797.24h-3c-.64-3.1-3-4.86-6.4-4.86-5.15,0-7.75,4.06-7.75,9.25,0,5.79,2.76,9.56,7.78,9.56,3.81,0,6.3-2.59,6.59-6.59h3c-.64,5.89-4.25,9.15-9.89,9.15a9.79,9.79,0,0,1-7.74-3.23,12.71,12.71,0,0,1-2.82-8.67,12.94,12.94,0,0,1,2.92-8.67,10.15,10.15,0,0,1,7.9-3.36C116.34,789.82,120.08,792.6,120.76,797.24Z"/><path d="M139.48,805c0,4.9-2.85,8.64-8,8.64-4.83,0-8-3.36-8-8.64,0-5.12,3-8.67,8-8.67S139.48,799.9,139.48,805Zm-8,6.24c3,0,5.16-2.36,5.16-6.24s-2.18-6.27-5.19-6.27-5.12,2.31-5.12,6.27C126.29,808.7,128.41,811.19,131.44,811.19Z"/><path d="M156.37,802.2v11h-2.72V802a3.12,3.12,0,0,0-3.39-3.36c-3.1,0-4.86,2.08-4.86,5.09v9.44h-2.72V796.67h2.56v2.62h.06a5.75,5.75,0,0,1,5.38-3C154.68,796.28,156.37,798.4,156.37,802.2Z"/><path d="M172.72,801.47H170v0c-.16-1.77-1.66-2.76-3.84-2.76s-3.52.77-3.52,2.11,1.19,1.92,3.43,2.44l2.4.54c3.2.74,5,2,5,4.61,0,3.45-2.94,5.21-7,5.21s-6.85-1.88-7-5.6h2.72c.07,2,1.7,3.2,4.45,3.2s4-.83,4-2.46a2,2,0,0,0-1-1.76c-.84-.54-1.86-.77-4.13-1.25-4.29-.89-5.66-2.37-5.66-4.73,0-2.91,2.59-4.71,6.2-4.71C170.42,796.28,172.5,798,172.72,801.47Z"/><path d="M190.84,805.43v.32H178.45v.2c0,3.16,2,5.24,5.15,5.24a4,4,0,0,0,4.29-3.23h2.69c-.74,3.62-3.33,5.63-7.07,5.63-6.62,0-7.94-5.66-7.94-8.76,0-4.55,3-8.55,7.78-8.55S190.84,800.12,190.84,805.43ZM188,803.35a4.77,4.77,0,0,0-4.8-4.67,4.71,4.71,0,0,0-4.71,4.67Z"/><path d="M207.35,802.2v11h-2.72V802a3.12,3.12,0,0,0-3.39-3.36c-3.11,0-4.87,2.08-4.87,5.09v9.44h-2.72V796.67h2.56v2.62h.07a5.72,5.72,0,0,1,5.37-3C205.65,796.28,207.35,798.4,207.35,802.2Z"/><path d="M215.22,791.71v5h3.3v2.4h-3.3v10.36c0,1.32.67,1.38,2.05,1.38h1.25v2.4h-2.24c-3,0-3.78-.93-3.78-3.68V799.07h-2.82v-2.4h2.82v-5Z"/><polygon points="509.21 846.87 535.71 848.13 518.07 857.99 509.21 846.87" style="opacity:0.49"/><rect x="409.96" y="749.89" width="108.1" height="108.1" style="fill:#fff;stroke:#000;stroke-miterlimit:10;stroke-width:1.958px"/><polyline points="491.95 833.38 491.95 840.93 434.04 840.93 434.04 769.14 491.95 769.14 491.95 791.7" style="fill:none;stroke:#df3326;stroke-linejoin:round;stroke-width:3.916px"/><path d="M496.34,802.72a19.93,19.93,0,1,1-4.39-5.4" style="fill:none;stroke:#df3326;stroke-linejoin:round;stroke-width:3.916px"/><polyline points="466.9 805.56 478.93 819.03 502.08 790.13" style="fill:none;stroke:#df3326;stroke-linejoin:round;stroke-width:3.916px"/><line x1="442.42" y1="781.82" x2="478.93" y2="781.82" style="fill:none;stroke:#df3326;stroke-linejoin:round;stroke-width:3.916px"/><line x1="442.42" y1="790.13" x2="463.75" y2="790.13" style="fill:none;stroke:#df3326;stroke-linejoin:round;stroke-width:3.916px"/><polygon points="841.51 655.78 868.01 657.05 850.37 666.9 841.51 655.78" style="opacity:0.49"/><rect x="742.27" y="558.8" width="108.1" height="108.1" style="fill:#fff;stroke:#000;stroke-miterlimit:10;stroke-width:1.958px"/><polygon points="840.39 641.4 752.96 641.4 752.55 628.98 840.81 628.98 840.39 641.4" style="fill:none;stroke:#df3326;stroke-linejoin:round;stroke-width:3.916px"/><polyline points="817 616.57 826.75 616.57 840.81 628.98 752.55 628.98 765.37 616.57 775.67 616.57" style="fill:none;stroke:#df3326;stroke-linejoin:round;stroke-width:3.916px"/><polygon points="808.39 605.96 808.39 578.86 783.81 578.86 783.81 605.96 770.46 605.96 796.1 623.25 821.74 605.96 808.39 605.96" style="fill:none;stroke:#df3326;stroke-linejoin:round;stroke-width:3.916px"/><polygon points="399.93 552.51 426.43 553.78 408.79 563.63 399.93 552.51" style="opacity:0.49"/><rect x="300.69" y="455.53" width="108.1" height="108.1" style="fill:#fff;stroke:#000;stroke-miterlimit:10;stroke-width:1.958px"/><rect x="323.47" y="494.83" width="61.99" height="53.71" style="fill:none;stroke:#df3326;stroke-linejoin:round;stroke-width:3.916px"/><path d="M337.88,493.62v-5.85a17,17,0,0,1,16.94-16.94h0a17,17,0,0,1,16.95,16.94v6.56" style="fill:none;stroke:#df3326;stroke-linejoin:round;stroke-width:3.916px"/><circle cx="354.47" cy="514.96" r="2.93" style="fill:#df3326;stroke:#df3326;stroke-linejoin:round;stroke-width:3.916px"/><line x1="354.47" y1="515.97" x2="354.47" y2="534.05" style="fill:none;stroke:#df3326;stroke-linejoin:round;stroke-width:3.916px"/><path d="M924.77,366v2.4h-9.15l-1.22,6.53.07.06a5.71,5.71,0,0,1,4.22-1.63c4.39,0,7.33,2.95,7.33,7.75,0,4.09-2.85,7.58-7.94,7.58-4.57,0-7.23-3.07-7.23-6.46v0h2.72a4.49,4.49,0,0,0,4.77,4.1c2.78,0,4.8-2,4.8-5.38a4.91,4.91,0,0,0-5.12-5.15,5.38,5.38,0,0,0-4.22,2.15l-2.34-.13L913.57,366Z"/><path d="M933.73,384.75v3.56h-3.55v-3.56Z"/><path d="M963.91,372.15H961c-.35-3.14-2.37-4.68-5.67-4.68s-5.12,1.41-5.12,3.91c0,2,1.83,2.72,3.81,3.26,1.31.35,2.59.61,3.52.8,4.71,1,7.3,2.75,7.3,6.59a5.87,5.87,0,0,1-2.66,5.06,11.15,11.15,0,0,1-6.27,1.76c-5.47,0-9.44-2.75-9.44-8.06h2.88c0,3.58,2.85,5.5,6.66,5.5s5.79-1.47,5.79-4.16c0-2.14-1.51-3.36-6.43-4.29-3.27-.64-5.41-1.41-6.53-2.37a4.9,4.9,0,0,1-1.67-3.87c0-4.29,3.65-6.68,8.29-6.68C960.55,364.92,963.78,367.51,963.91,372.15Z"/><path d="M971.88,366.8v5h3.29v2.4h-3.29v10.37c0,1.31.67,1.38,2,1.38h1.25v2.4h-2.24c-3,0-3.77-.93-3.77-3.68V374.16h-2.82v-2.4h2.82v-5Z"/><path d="M993.35,380.05c0,4.9-2.85,8.64-8,8.64-4.83,0-8-3.36-8-8.64,0-5.12,3-8.67,8-8.67S993.35,375,993.35,380.05Zm-8,6.24c3,0,5.16-2.37,5.16-6.24s-2.18-6.27-5.19-6.27-5.12,2.3-5.12,6.27C980.16,383.79,982.28,386.29,985.31,386.29Z"/><path d="M1005.15,371.38v2.88c-4.06,0-6,2.11-6,6.65v7.4h-2.72V371.76H999v3.49h.07c1.27-2.62,3.1-3.87,5.69-3.87Z"/><path d="M1020.16,376v8.77c0,1.08.1,1.5.87,1.5a2.49,2.49,0,0,0,.83-.16v2.11a4,4,0,0,1-2,.45c-1.48,0-2.31-.83-2.31-2.56a7.26,7.26,0,0,1-5.82,2.56c-3.39,0-5.47-1.66-5.47-4.64a4.29,4.29,0,0,1,1.44-3.52c1.08-.9,2.75-1.44,6.65-1.95,2.43-.32,3.07-1,3.07-2.08,0-1.73-1.12-2.72-3.68-2.72s-4,1-4.12,3.13H1007c.16-3.68,2.72-5.53,7-5.53C1018.66,371.38,1020.16,373.2,1020.16,376Zm-7.77,10.27c3.42,0,5.05-2.08,5.05-3.78v-2.75a4.55,4.55,0,0,1-1.92.67c-.93.16-1.89.29-2.81.42-2.4.35-3.52,1.28-3.52,3C1009.19,385.39,1010.37,386.29,1012.39,386.29Z"/><path d="M1036.07,374.13h0v-2.37h2.56V387c0,5.22-2.47,8-7.65,8-3.55,0-6.72-1.47-6.88-4.86h2.72c.1,1.82,2.18,2.69,4.29,2.69,3.2,0,5-2.14,5-6.34v-1H1036a5.47,5.47,0,0,1-5.15,3c-4.54,0-7.39-3.39-7.39-8.39a9.35,9.35,0,0,1,2.59-6.88,7,7,0,0,1,5-1.85A5.42,5.42,0,0,1,1036.07,374.13Zm-5,12c3.11,0,4.93-2.59,4.93-6.43,0-3.46-1.7-5.89-4.74-5.89s-4.86,2.4-4.86,6C1026.37,383.67,1028.07,386.1,1031,386.1Z"/><path d="M1057.12,380.53v.32h-12.38V381c0,3.17,2,5.25,5.15,5.25a4,4,0,0,0,4.29-3.23h2.69c-.74,3.61-3.33,5.63-7.08,5.63-6.62,0-7.93-5.66-7.93-8.77,0-4.54,3-8.54,7.77-8.54S1057.12,375.22,1057.12,380.53Zm-2.88-2.08a4.76,4.76,0,0,0-4.8-4.67,4.69,4.69,0,0,0-4.7,4.67Z"/><path d="M683.68,149.72v2.34a29.62,29.62,0,0,0-5.92,9A33.36,33.36,0,0,0,675,172h-3a32.46,32.46,0,0,1,9-19.74H669v-2.56Z"/><path d="M691.4,168.47V172h-3.55v-3.55Z"/><path d="M709.7,149.18l7.2,19.2,7.23-19.2h4.16V172h-2.88V153h-.06l-7.14,19h-2.59l-7.14-19h-.06v19h-2.88V149.18Z"/><path d="M748.07,163.77c0,4.89-2.85,8.64-8,8.64-4.84,0-8-3.36-8-8.64,0-5.12,3-8.67,8-8.67S748.07,158.71,748.07,163.77ZM740,170c3,0,5.15-2.37,5.15-6.24S743,157.5,740,157.5s-5.12,2.3-5.12,6.27C734.88,167.51,737,170,740,170Z"/><path d="M765,161v11h-2.72V160.86a3.11,3.11,0,0,0-3.39-3.36c-3.1,0-4.86,2.08-4.86,5.08V172h-2.72V155.48h2.56v2.62h.06a5.74,5.74,0,0,1,5.38-3C763.27,155.1,765,157.21,765,161Z"/><path d="M783.43,164.25v.32H771v.19c0,3.17,2,5.25,5.16,5.25a4,4,0,0,0,4.28-3.23h2.69c-.73,3.61-3.33,5.63-7.07,5.63-6.62,0-7.94-5.67-7.94-8.77,0-4.54,3-8.54,7.78-8.54S783.43,158.94,783.43,164.25Zm-2.88-2.08a4.76,4.76,0,0,0-4.8-4.67,4.7,4.7,0,0,0-4.71,4.67Z"/><path d="M790,150.52v5h3.3v2.4H790v10.37c0,1.31.67,1.37,2.05,1.37h1.25V172h-2.24c-3,0-3.78-.92-3.78-3.68V157.88h-2.82v-2.4h2.82v-5Z"/><path d="M799.2,149.18v3.33h-2.72v-3.33Zm0,6.3V172h-2.72V155.48Z"/><path d="M815.59,155.48v1.86l-10.11,12.28H816V172H802.08v-2.08l10-12.06h-9.35v-2.4Z"/><path d="M831.75,159.74v8.76c0,1.09.09,1.51.86,1.51a2.66,2.66,0,0,0,.83-.16V172a4,4,0,0,1-2,.45c-1.47,0-2.3-.83-2.3-2.56a7.31,7.31,0,0,1-5.83,2.56c-3.39,0-5.47-1.67-5.47-4.64a4.32,4.32,0,0,1,1.44-3.52c1.09-.9,2.75-1.44,6.66-1.95,2.43-.32,3.07-1,3.07-2.08,0-1.73-1.12-2.72-3.68-2.72s-4,1-4.13,3.13h-2.72c.16-3.68,2.72-5.53,7-5.53C830.24,155.1,831.75,156.92,831.75,159.74ZM824,170c3.42,0,5.06-2.08,5.06-3.78v-2.75a4.69,4.69,0,0,1-1.92.67c-.93.16-1.89.29-2.82.42-2.4.35-3.52,1.28-3.52,3C820.77,169.11,822,170,824,170Z"/><path d="M839.75,150.52v5H843v2.4h-3.29v10.37c0,1.31.67,1.37,2,1.37H843V172H840.8c-3,0-3.77-.92-3.77-3.68V157.88h-2.82v-2.4H837v-5Z"/><path d="M848.93,149.18v3.33h-2.72v-3.33Zm0,6.3V172h-2.72V155.48Z"/><path d="M868.32,163.77c0,4.89-2.85,8.64-8,8.64-4.83,0-8-3.36-8-8.64,0-5.12,3-8.67,8-8.67S868.32,158.71,868.32,163.77Zm-8,6.24c3,0,5.15-2.37,5.15-6.24s-2.17-6.27-5.18-6.27-5.12,2.3-5.12,6.27C855.14,167.51,857.25,170,860.29,170Z"/><path d="M885.22,161v11H882.5V160.86a3.12,3.12,0,0,0-3.4-3.36c-3.1,0-4.86,2.08-4.86,5.08V172h-2.72V155.48h2.56v2.62h.07a5.71,5.71,0,0,1,5.37-3C883.52,155.1,885.22,157.21,885.22,161Z"/><path d="M112,272.44h-2.72a3.62,3.62,0,0,0-3.8-3.39c-3.49,0-5.35,2.94-5.51,8.61l.07.06a6.15,6.15,0,0,1,5.69-3c4.07,0,6.91,2.91,6.91,7.32,0,3.91-2.33,7.65-7.58,7.65s-7.81-3.58-7.81-10.94c0-7.81,2.88-12.13,8.35-12.13C109.38,266.65,111.71,268.76,112,272.44Zm-6.81,14.88c2.78,0,4.57-2.14,4.57-5,0-3.14-1.76-5.15-4.6-5.15s-4.68,2.11-4.68,5.12S102.37,287.32,105.22,287.32Z"/><path d="M120.07,285.79v3.55h-3.56v-3.55Z"/><path d="M143.71,266.49l8.93,22.85h-3.36l-2.49-6.88h-9.67l-2.56,6.88h-3.13l8.92-22.85ZM142,269.24l-3.87,10.66h7.75L142,269.24Z"/><path d="M168.48,278.11h-2.82a3.85,3.85,0,0,0-4.09-3.3c-3.42,0-5.15,2.37-5.15,6.46,0,3.62,1.79,6.05,4.83,6.05a4.25,4.25,0,0,0,4.54-4h2.79c-.61,4.06-3.17,6.43-7.3,6.43-4.83,0-7.74-3.26-7.74-8.45s2.72-8.86,7.81-8.86C165.35,272.41,168.1,274.33,168.48,278.11Z"/><path d="M185.66,278.11h-2.81a3.86,3.86,0,0,0-4.1-3.3c-3.42,0-5.15,2.37-5.15,6.46,0,3.62,1.79,6.05,4.83,6.05a4.26,4.26,0,0,0,4.55-4h2.78c-.61,4.06-3.17,6.43-7.29,6.43-4.84,0-7.75-3.26-7.75-8.45s2.72-8.86,7.81-8.86C182.53,272.41,185.28,274.33,185.66,278.11Z"/><path d="M203.17,281.56v.32H190.79v.19c0,3.17,2,5.25,5.15,5.25a4,4,0,0,0,4.28-3.23h2.69c-.73,3.62-3.33,5.63-7.07,5.63-6.62,0-7.93-5.66-7.93-8.77,0-4.54,3-8.54,7.77-8.54S203.17,276.25,203.17,281.56Zm-2.88-2.08a4.77,4.77,0,0,0-4.8-4.67,4.7,4.7,0,0,0-4.7,4.67Z"/><path d="M218.24,277.59h-2.72v0c-.16-1.76-1.66-2.75-3.84-2.75s-3.52.77-3.52,2.11,1.18,1.92,3.42,2.43l2.4.55c3.2.73,5,2,5,4.61,0,3.45-2.95,5.21-7,5.21s-6.85-1.89-7-5.6h2.72c.06,2.05,1.69,3.2,4.45,3.2s4-.83,4-2.46a2,2,0,0,0-1-1.76c-.83-.55-1.85-.77-4.13-1.25-4.28-.9-5.66-2.37-5.66-4.74,0-2.91,2.59-4.7,6.21-4.7C215.94,272.41,218,274.14,218.24,277.59Z"/><path d="M234.24,277.59h-2.72v0c-.16-1.76-1.66-2.75-3.84-2.75s-3.52.77-3.52,2.11,1.18,1.92,3.42,2.43l2.4.55c3.2.73,5,2,5,4.61,0,3.45-2.95,5.21-7,5.21s-6.85-1.89-7-5.6h2.72c.06,2.05,1.69,3.2,4.45,3.2s4-.83,4-2.46a2,2,0,0,0-1-1.76c-.83-.55-1.85-.77-4.13-1.25-4.28-.9-5.66-2.37-5.66-4.74,0-2.91,2.59-4.7,6.21-4.7C231.94,272.41,234,274.14,234.24,277.59Z"/><polygon points="831.35 437.99 857.14 440.66 838.1 449.11 831.35 437.99" style="opacity:0.49"/><rect x="734.35" y="343.74" width="108.1" height="108.1" style="fill:#fff;stroke:#000;stroke-miterlimit:10;stroke-width:1.958px"/><path d="M807.58,390.83c8.37,1.21,13.81,3.17,13.81,5.39,0,3.65-14.82,6.62-33.11,6.62s-33.11-3-33.11-6.62c0-2.18,5.24-4.11,13.32-5.31" style="fill:none;stroke:#df3326;stroke-linejoin:round;stroke-width:3.916px"/><path d="M821.39,396.22v36.65c0,3.66-14.82,6.63-33.11,6.63s-33.11-3-33.11-6.63V396.22" style="fill:none;stroke:#df3326;stroke-linejoin:round;stroke-width:3.916px"/><path d="M821.39,409.26c0,3.66-14.82,6.62-33.11,6.62s-33.11-3-33.11-6.62" style="fill:none;stroke:#df3326;stroke-linejoin:round;stroke-width:3.916px"/><path d="M821.39,421.51c0,3.66-14.82,6.63-33.11,6.63s-33.11-3-33.11-6.63" style="fill:none;stroke:#df3326;stroke-linejoin:round;stroke-width:3.916px"/><polygon points="800.11 383.24 800.11 360.98 776.46 360.98 776.46 383.24 763.61 383.24 788.28 397.43 812.96 383.24 800.11 383.24" style="fill:none;stroke:#df3326;stroke-linejoin:round;stroke-width:3.916px"/><polygon points="641.87 241 668.37 243.67 650.73 253.53 641.87 241" style="opacity:0.49"/><rect x="542.63" y="144.72" width="108.1" height="108.1" style="fill:#fff;stroke:#000;stroke-miterlimit:10;stroke-width:1.958px"/><path d="M593.24,160.53a38.69,38.69,0,0,0,.13,77.18" style="fill:none;stroke:#df3326;stroke-linejoin:round;stroke-width:3.916px"/><path d="M599,160.5a38.69,38.69,0,0,1,1.59,77.1" style="fill:none;stroke:#df3326;stroke-linejoin:round;stroke-width:3.916px"/><polyline points="582.63 153.84 593.17 160.8 585.39 170.94" style="fill:none;stroke:#df3326;stroke-linejoin:round;stroke-width:3.916px"/><polyline points="607.45 227.89 598.24 237.16 610.02 244.28" style="fill:none;stroke:#df3326;stroke-linejoin:round;stroke-width:3.916px"/><path d="M594.73,171.9h3.39V176c6.46.74,10.46,4.92,12.13,12.19H605c-.86-4.19-3.38-6.53-6.89-7.14v15.14l3.88,1a16.57,16.57,0,0,1,4.74,2.21,10.84,10.84,0,0,1,4.86,9.17c0,7.45-5.17,12.74-13.48,13.36v5.05h-3.39V222c-8.37-.86-13.17-6.09-13.91-14.46h5.24c.24,5.29,3.38,8.61,8.67,9.54V200.76c-9.54-2.27-12.61-5.35-12.61-11.88,0-6.83,4.86-12.43,12.61-12.92Zm0,23.39V180.88c-4.3.43-7.07,3.14-7.07,7.45C587.66,191.78,589.44,193.87,594.73,195.29Zm3.39,21.79c5.29-.43,7.94-3.14,7.94-7.88,0-3.39-1.6-5.85-7.94-7.57Z" style="fill:#df3326"/><path d="M201.14,405a4.62,4.62,0,0,0-2.68.85,1.15,1.15,0,0,0,0-.19,5.06,5.06,0,0,0-7.41-4.48,6.24,6.24,0,0,0,.14-1.3,6.37,6.37,0,0,0-6.37-6.37,6.11,6.11,0,0,0-1.77.26,9.52,9.52,0,0,0-18.15,4A9.08,9.08,0,0,0,165,399a7.79,7.79,0,0,0,1.8,15.37h34.35a4.66,4.66,0,1,0,0-9.32Z" style="fill:#fff;opacity:0.47000000000000003"/><path d="M167.36,433.85a7.41,7.41,0,0,0-4.27,1.36c0-.1,0-.2,0-.29a8.05,8.05,0,0,0-11.79-7.14A10.11,10.11,0,0,0,138.58,416a15.13,15.13,0,0,0-28.86,6.38,14.56,14.56,0,0,0,.12,1.87,12.39,12.39,0,0,0,2.86,24.45h54.66a7.42,7.42,0,0,0,0-14.84Z" style="fill:#fff;opacity:0.85"/><path d="M1020.64,314a4.8,4.8,0,0,0-2.79.89c0-.07,0-.13,0-.19a5.28,5.28,0,0,0-7.72-4.68,6.62,6.62,0,0,0-8.35-7.72,9.91,9.91,0,0,0-18.83,5.4,8.12,8.12,0,0,0,1.88,16h35.8a4.86,4.86,0,0,0,0-9.72Z" style="fill:#fff;opacity:0.51"/><line x1="659.09" y1="184.95" x2="887.27" y2="184.95" style="fill:none;stroke:#000;stroke-linejoin:round;stroke-width:1.86731828927994px"/><line x1="851.62" y1="402.28" x2="1061.89" y2="402.28" style="fill:none;stroke:#000;stroke-linejoin:round;stroke-width:1.86731828927994px"/><line x1="859.88" y1="623.72" x2="1157.4" y2="623.72" style="fill:none;stroke:#000;stroke-linejoin:round;stroke-width:1.86731828927994px"/><line x1="96.07" y1="304.19" x2="278.24" y2="304.19" style="fill:none;stroke:#000;stroke-linejoin:round;stroke-width:1.88221590280533px"/><line x1="7.59" y1="514.78" x2="285.01" y2="514.78" style="fill:none;stroke:#000;stroke-linejoin:round;stroke-width:1.88221590280533px"/><line x1="656.74" y1="944.92" x2="1161.23" y2="944.92" style="fill:none;stroke:#000;stroke-linejoin:round;stroke-width:1.86731828927994px"/><line x1="63.57" y1="827.15" x2="406.01" y2="825.13" style="fill:none;stroke:#000;stroke-linejoin:round;stroke-width:1.88221590280533px"/><path d="M256.05,664.72c47.4,0,86-9.8,86-21.85S303.45,621,256.05,621c-9,0-17.7.36-25.87,1v41.68C238.35,664.37,247,664.72,256.05,664.72Z" style="fill:none"/><g style="opacity:0.77"><path d="M393,125.69c-3-2.07-5.68-1.34-8-3.26s-6.36-2.81-9.32-2.81-55,2.66-65.5,3a47.66,47.66,0,0,0-7.66.88c-2.76-3.06-6.63-7.43-7.11-8.3-.78-1.4-2.08-1.78-6.21-1.48a10.48,10.48,0,0,0-2.66.3l4.67,13c-1.65.8-2.59,1.52-2.47,1.94,1,3.7,6.51,5.19,11.83,5.49,2.44.13,18.14.3,34.86.44,0,.1-.07.2-.11.3-1.48,3.4-9.61,19.22-9.17,19.37a35.62,35.62,0,0,0,4.88.9c2.51.32,3.84,1,6.21-1.35,1.71-1.66,11.64-13.88,15.85-19.08,13.18.09,24.07.16,25.7.16,4.28,0,11.23-2.22,14.25-3.55S396.07,127.76,393,125.69Z" style="fill:#fff"/><path d="M350.29,116.33l-9.9-11.39c-1-1.18-3.55-1.77-6.21-1.48l-2.67.3,4.74,13.16Z" style="fill:#fff"/></g><path d="M999,317.46a7.2,7.2,0,0,0-4.14,1.31,2.46,2.46,0,0,0,0-.28,7.81,7.81,0,0,0-11.45-6.92,9.61,9.61,0,0,0,.21-2,9.83,9.83,0,0,0-12.57-9.44,14.69,14.69,0,0,0-28,6.2,15.74,15.74,0,0,0,.11,1.82A12,12,0,0,0,946,331.86h53a7.2,7.2,0,1,0,0-14.4Z" style="fill:#fff;opacity:0.86"/><path d="M994.29,127.37c-2.65-3.6-6.12-5.54-7.75-4.34-.86.63-1,2-.62,3.7l-2.91,3c-.66.49-.63,1.75,0,3.17a2.21,2.21,0,0,0-.76.36A2.3,2.3,0,0,0,985,137a2,2,0,0,0,.53-.57c1.25,1.11,2.52,1.57,3.22,1.05l3.73-1.89c1.49.9,2.86,1.14,3.72.5C997.77,134.85,996.94,131,994.29,127.37Z" style="fill:#fff"/><path d="M999.22,136.9l7.52-5.54c2.07-1.53,1-6.48-2.37-11.06s-7.79-7-9.86-5.52L987,120.32c2.07-1.53,6.49.94,9.87,5.52S1001.29,135.37,999.22,136.9Z" style="fill:#fff"/><path d="M1005.89,111.45l-5.95,2.63c1.72-.37,4.56,1.44,6.8,4.47s3.12,6.24,2.28,7.79l4.21-4.94c1.57-1.16,1.75-3.58-.8-7S1007.46,110.29,1005.89,111.45Z" style="fill:#fff"/><path d="M1009,126.34l-.49.58A1.74,1.74,0,0,0,1009,126.34Z" style="fill:#fff"/><path d="M999.94,114.08a1.63,1.63,0,0,0-.67.3Z" style="fill:#fff"/><polygon points="1017.11 162.96 1026.48 152.71 1010.57 131.14 1001.2 141.39 1017.11 162.96" style="fill:#fff"/><polygon points="978.27 87.36 969.08 97.85 984.99 119.42 994.18 108.92 978.27 87.36" style="fill:#fff"/><path d="M389.15,157.14a14.58,14.58,0,0,1-25,.58" style="fill:none;stroke:#fff;stroke-linecap:round;stroke-miterlimit:10;stroke-width:3.88543178239501px"/><path d="M402.45,167.17a30.62,30.62,0,0,1-51.78.33" style="fill:none;stroke:#fff;stroke-linecap:round;stroke-miterlimit:10;stroke-width:4.85678972799376px"/><path d="M416.34,177.05a47.06,47.06,0,0,1-79.18.9" style="fill:none;stroke:#fff;stroke-linecap:round;stroke-miterlimit:10;stroke-width:5.97506774674506px"/><path d="M980.1,154.35a14.58,14.58,0,0,1-17.2-18.21" style="fill:none;stroke:#fff;stroke-linecap:round;stroke-miterlimit:10;stroke-width:3.88543178239501px"/><path d="M981.56,170.94a30.61,30.61,0,0,1-34.92-38.23" style="fill:none;stroke:#fff;stroke-linecap:round;stroke-miterlimit:10;stroke-width:4.85678972799376px"/><path d="M983.52,187.87a47.05,47.05,0,0,1-53.69-58.2" style="fill:none;stroke:#fff;stroke-linecap:round;stroke-miterlimit:10;stroke-width:5.97506774674506px"/><path d="M452.2,329.91a14.58,14.58,0,0,1,25-.58" style="fill:none;stroke:#fff;stroke-linecap:round;stroke-miterlimit:10;stroke-width:3.88543178239501px"/><path d="M438.9,319.88a30.62,30.62,0,0,1,51.78-.33" style="fill:none;stroke:#fff;stroke-linecap:round;stroke-miterlimit:10;stroke-width:4.85678972799376px"/><path d="M425,310a47.06,47.06,0,0,1,79.18-.9" style="fill:none;stroke:#fff;stroke-linecap:round;stroke-miterlimit:10;stroke-width:5.97506774674506px"/><path d="M685.85,679.1a13,13,0,0,1,22.37-.52" style="fill:none;stroke:#fff;stroke-linecap:round;stroke-miterlimit:10;stroke-width:3.47150872476156px"/><path d="M674,670.14a27.35,27.35,0,0,1,46.26-.3" style="fill:none;stroke:#fff;stroke-linecap:round;stroke-miterlimit:10;stroke-width:4.33938590595195px"/><path d="M661.56,661.31a42,42,0,0,1,70.74-.8" style="fill:none;stroke:#fff;stroke-linecap:round;stroke-miterlimit:10;stroke-width:5.3385314620248px"/><polygon points="382.38 354.11 408.88 355.38 391.24 365.23 382.38 354.11" style="opacity:0.49"/><rect x="283.14" y="257.13" width="108.1" height="108.1" style="fill:#fff;stroke:#000;stroke-miterlimit:10;stroke-width:1.958px"/><polyline points="302.33 341.91 302.33 283.93 339.64 272.31 339.64 292.28" style="fill:none;stroke:#df3326;stroke-linejoin:round;stroke-width:3.916px"/><polygon points="347.69 352.64 302.33 341.91 302.33 283.93 347.69 294.66 347.69 352.64" style="fill:none;stroke:#df3326;stroke-linejoin:round;stroke-width:3.916px"/><polyline points="353.59 325.62 364.88 325.62 364.88 337.86 380.28 312.68 364.88 287.51 364.88 299.74 353.14 299.74" style="fill:none;stroke:#df3326;stroke-linejoin:round;stroke-width:3.916px"/><path d="M339.42,1047.43a14.58,14.58,0,0,1,14.76,20.24" style="fill:none;stroke:#fff;stroke-linecap:round;stroke-miterlimit:10;stroke-width:3.88543178239501px"/><path d="M340.07,1030.79a30.61,30.61,0,0,1,29.81,42.33" style="fill:none;stroke:#fff;stroke-linecap:round;stroke-miterlimit:10;stroke-width:4.85678972799376px"/><path d="M340.26,1013.74a47.06,47.06,0,0,1,45.91,64.52" style="fill:none;stroke:#fff;stroke-linecap:round;stroke-miterlimit:10;stroke-width:5.97506774674506px"/><path d="M822.39,852.87a14.58,14.58,0,0,1-.58-25" style="fill:none;stroke:#fff;stroke-linecap:round;stroke-miterlimit:10;stroke-width:3.88543178239501px"/><path d="M812.36,866.17A30.6,30.6,0,0,1,812,814.4" style="fill:none;stroke:#fff;stroke-linecap:round;stroke-miterlimit:10;stroke-width:4.85678972799376px"/><path d="M802.48,880.06a47,47,0,0,1-.9-79.17" style="fill:none;stroke:#fff;stroke-linecap:round;stroke-miterlimit:10;stroke-width:5.97506774674506px"/></g></svg>